<svg id="Livello_1" data-name="Livello 1" xmlns="http://www.w3.org/2000/svg" viewBox="0 0 702.71 170.99"><defs><style>.cls-1{fill:none;stroke:#000;stroke-miterlimit:10;stroke-width:5.67px;}</style></defs><title>midi-association</title><path class="cls-1" d="M561.28,616.25c9.74-37,17.68-75.37,12.35-113.64-2-13-8.47-37.05-26.12-30.55-22.25,8.16-38,32.54-50.41,51.9a431.54,431.54,0,0,1,37,92.21H513.94c-8.57-24.58-16-48-28.29-71.33a413.75,413.75,0,0,0-27.92,71.41H437.42C441,600.43,454.68,559,474.15,524c-11.85-18.89-25.12-38.53-45-49.79-23-13.57-31,17.78-32.4,34.9-3.66,36.43,4.43,72,13.11,107.09H389.68C378.34,575,366.91,511.26,386.83,471.8c9.48-18.67,29.07-25.63,48-16.88,22.68,9.73,36.58,30.63,50.68,49.78,8.5-11.77,16.69-23.57,27.44-33.51,20.79-21,53.4-31.26,70.81-.57,20.7,38.79,9.29,104.71-2.28,145.69Z" transform="translate(-373.13 -448.17)"/><path class="cls-1" d="M631,451H775.63c12.17,0,19.25,10.49,19.25,23V616.14H754.52V492.59H730.93V616.14H694.31V492.59h-23V616.14H631Z" transform="translate(-373.13 -448.17)"/><rect class="cls-1" x="441.62" y="2.83" width="40.35" height="165.14"/><path class="cls-1" d="M874.34,451H994.16c12.16,0,19.24,10.49,19.24,23V595.65c0,15.46-6.45,20.49-20.48,20.49H874.34V511.22h41v64.56h57.74V488.25H874.34Z" transform="translate(-373.13 -448.17)"/><rect class="cls-1" x="658.9" y="2.83" width="40.97" height="165.14"/></svg>