<svg xmlns="http://www.w3.org/2000/svg" viewBox="0 0 273.17 111.65"><defs><style>.cls-1{fill:none;stroke:#000;stroke-linecap:round;stroke-linejoin:round;stroke-width:2.83px;}</style></defs><title>PIK</title><g id="Livello_2" data-name="Livello 2"><g id="Livello_1-2" data-name="Livello 1"><path class="cls-1" d="M83.51,25.21A34.5,34.5,0,0,0,52.11,1.85v0H7.2A5.8,5.8,0,0,0,1.42,7.61v95.27a5.8,5.8,0,0,0,5.78,5.78H46.33a5.8,5.8,0,0,0,5.78-5.78V70.79A34.48,34.48,0,0,0,85.34,36.32c0-.92,0-1.83-.1-2.74"/><path class="cls-1" d="M52.14,70.84v0a34.5,34.5,0,0,0,0-68.95v0"/><path class="cls-1" d="M149.64,104V8.76A5.8,5.8,0,0,0,143.86,3l-39.12.41A5.81,5.81,0,0,0,99,9.18v95.27a5.8,5.8,0,0,0,5.79,5.78h39.13a5.8,5.8,0,0,0,5.78-5.78Z"/><path class="cls-1" d="M168,80.75v22.13a5.8,5.8,0,0,0,5.78,5.78h39.13a5.8,5.8,0,0,0,5.78-5.78V91.44L234.23,107a5.8,5.8,0,0,0,8.18,0l27.37-28a5.79,5.79,0,0,0,0-8.17L254.16,55.22l15.91-15.91a5.79,5.79,0,0,0,0-8.17l-28-27.37a5.79,5.79,0,0,0-8.17,0L218.7,19V7.2a5.8,5.8,0,0,0-5.78-5.78l-39.13.41A5.8,5.8,0,0,0,168,7.61V80.75Z"/></g></g></svg>