<svg xmlns="http://www.w3.org/2000/svg" viewBox="0 0 77.89 61.31"><defs><style>.cls-1{fill:none;stroke:#000;stroke-linecap:round;stroke-linejoin:round;stroke-width:0.57px;}</style></defs><title>pik_tek</title><g id="Predefinito"><path class="cls-1" d="M654.93,492.17h0a21.72,21.72,0,0,0-3,.45l-.24.05a1.69,1.69,0,0,0-1.29,1.63V506h-9.06a2.23,2.23,0,0,0-1.88,2.47v37.77a1.68,1.68,0,0,0,1.67,1.68h12.39a1.74,1.74,0,0,0,1.74-1.75v-.1a1.69,1.69,0,0,1,.43-1.13,1.62,1.62,0,0,1,2.36,0,1.69,1.69,0,0,1,.42,1.13v.1a1.75,1.75,0,0,0,1.75,1.75h30.93a1.75,1.75,0,0,0,1.75-1.75v-.1a1.7,1.7,0,0,1,.2-.83,1.61,1.61,0,0,1,1.83-.75,1.64,1.64,0,0,1,1.17,1.59v.09a1.75,1.75,0,0,0,1.75,1.75h12.39a1.68,1.68,0,0,0,1.67-1.68V517.73a1.67,1.67,0,0,0-1.67-1.67H697.86a1.74,1.74,0,0,0-1.75,1.74v.1a1.69,1.69,0,0,1-.42,1.13,1.6,1.6,0,0,1-2.36,0,1.69,1.69,0,0,1-.42-1.13v-.1a1.75,1.75,0,0,0-1.75-1.74H677.05V506a1.68,1.68,0,0,0-.43-1.13c-.55-.59-1.08-1.2-1.59-1.84-.31-.41-.6-.83-.88-1.26a20.94,20.94,0,0,0-16.15-9.6h0c.66-.83,1.32-1.67,2-2.5.65-.05,1.31-.08,2-.08a25,25,0,0,1,24.95,24.05h23.22a4.19,4.19,0,0,1,4.18,4.19v28.32a4.19,4.19,0,0,1-4.18,4.18H641.2a4.2,4.2,0,0,1-4.19-4.18V513.64h0a25,25,0,0,1,16.9-22.73Z" transform="translate(-636.73 -489.31)"/><path class="cls-1" d="M654.93,492.17h0a21.72,21.72,0,0,0-3,.45l-.24.05a1.69,1.69,0,0,0-1.29,1.63V506h-9.06a2.23,2.23,0,0,0-1.88,2.47v37.77a1.68,1.68,0,0,0,1.67,1.68h12.39a1.74,1.74,0,0,0,1.74-1.75v-.1a1.69,1.69,0,0,1,.43-1.13,1.62,1.62,0,0,1,2.36,0,1.69,1.69,0,0,1,.42,1.13v.1a1.75,1.75,0,0,0,1.75,1.75h30.93a1.75,1.75,0,0,0,1.75-1.75v-.1a1.7,1.7,0,0,1,.2-.83,1.61,1.61,0,0,1,1.83-.75,1.64,1.64,0,0,1,1.17,1.59v.09a1.75,1.75,0,0,0,1.75,1.75h12.39a1.68,1.68,0,0,0,1.67-1.68V517.73a1.67,1.67,0,0,0-1.67-1.67H697.86a1.74,1.74,0,0,0-1.75,1.74v.1a1.69,1.69,0,0,1-.42,1.13,1.6,1.6,0,0,1-2.36,0,1.69,1.69,0,0,1-.42-1.13v-.1a1.75,1.75,0,0,0-1.75-1.74H677.05V506a1.68,1.68,0,0,0-.43-1.13c-.55-.59-1.08-1.2-1.59-1.84-.31-.41-.6-.83-.88-1.26a20.94,20.94,0,0,0-16.15-9.6h0c.66-.83,1.32-1.67,2-2.5.65-.05,1.31-.08,2-.08a25,25,0,0,1,24.95,24.05h23.22a4.19,4.19,0,0,1,4.18,4.19v28.32a4.19,4.19,0,0,1-4.18,4.18H641.2a4.2,4.2,0,0,1-4.19-4.18V513.64h0a25,25,0,0,1,16.9-22.73Z" transform="translate(-636.73 -489.31)"/><path class="cls-1" d="M645.86,502.21a.84.84,0,1,0,.84-.84A.84.84,0,0,0,645.86,502.21Z" transform="translate(-636.73 -489.31)"/><path class="cls-1" d="M645.86,502.21a.84.84,0,1,0,.84-.84A.84.84,0,0,0,645.86,502.21Z" transform="translate(-636.73 -489.31)"/><path class="cls-1" d="M676.37,502.18a.85.85,0,0,0,.84.84.84.84,0,0,0,0-1.68A.85.85,0,0,0,676.37,502.18Z" transform="translate(-636.73 -489.31)"/><path class="cls-1" d="M676.37,502.18a.85.85,0,0,0,.84.84.84.84,0,0,0,0-1.68A.85.85,0,0,0,676.37,502.18Z" transform="translate(-636.73 -489.31)"/><line class="cls-1" x1="18.21" y1="2.87" x2="18.21" y2="2.87"/><line class="cls-1" x1="18.21" y1="2.88" x2="18.21" y2="2.88"/><line class="cls-1" x1="15.21" y1="3.33" x2="15.21" y2="3.33"/><line class="cls-1" x1="14.98" y1="3.38" x2="14.98" y2="3.38"/><line class="cls-1" x1="13.69" y1="5.01" x2="13.69" y2="5.01"/><line class="cls-1" x1="13.69" y1="16.69" x2="13.69" y2="16.69"/><line class="cls-1" x1="4.62" y1="16.69" x2="4.62" y2="16.69"/><line class="cls-1" x1="2.74" y1="19.17" x2="2.74" y2="19.17"/><line class="cls-1" x1="2.74" y1="28.29" x2="2.74" y2="28.29"/><line class="cls-1" x1="2.74" y1="28.39" x2="2.74" y2="28.39"/><line class="cls-1" x1="2.74" y1="28.42" x2="2.74" y2="28.42"/><line class="cls-1" x1="2.74" y1="56.94" x2="2.74" y2="56.94"/><line class="cls-1" x1="4.42" y1="58.61" x2="4.42" y2="58.61"/><line class="cls-1" x1="16.81" y1="58.61" x2="16.81" y2="58.61"/><line class="cls-1" x1="18.55" y1="56.87" x2="18.55" y2="56.87"/><line class="cls-1" x1="18.55" y1="56.77" x2="18.55" y2="56.77"/><line class="cls-1" x1="18.97" y1="55.64" x2="18.97" y2="55.64"/><line class="cls-1" x1="21.33" y1="55.64" x2="21.33" y2="55.64"/><line class="cls-1" x1="21.76" y1="56.77" x2="21.76" y2="56.77"/><line class="cls-1" x1="21.76" y1="56.87" x2="21.76" y2="56.87"/><line class="cls-1" x1="23.5" y1="58.61" x2="23.5" y2="58.61"/><line class="cls-1" x1="54.44" y1="58.61" x2="54.44" y2="58.61"/><line class="cls-1" x1="56.18" y1="56.87" x2="56.18" y2="56.87"/><line class="cls-1" x1="56.18" y1="56.76" x2="56.18" y2="56.76"/><line class="cls-1" x1="56.39" y1="55.94" x2="56.39" y2="55.94"/><line class="cls-1" x1="58.21" y1="55.18" x2="58.21" y2="55.18"/><line class="cls-1" x1="59.39" y1="56.77" x2="59.39" y2="56.77"/><line class="cls-1" x1="59.39" y1="56.87" x2="59.39" y2="56.87"/><line class="cls-1" x1="61.13" y1="58.61" x2="61.13" y2="58.61"/><line class="cls-1" x1="73.52" y1="58.61" x2="73.52" y2="58.61"/><line class="cls-1" x1="75.19" y1="56.94" x2="75.19" y2="56.94"/><line class="cls-1" x1="75.19" y1="28.42" x2="75.19" y2="28.42"/><line class="cls-1" x1="73.52" y1="26.75" x2="73.52" y2="26.75"/><line class="cls-1" x1="61.13" y1="26.75" x2="61.13" y2="26.75"/><line class="cls-1" x1="59.39" y1="28.49" x2="59.39" y2="28.49"/><line class="cls-1" x1="59.39" y1="28.59" x2="59.39" y2="28.59"/><line class="cls-1" x1="58.96" y1="29.72" x2="58.96" y2="29.72"/><line class="cls-1" x1="56.6" y1="29.72" x2="56.6" y2="29.72"/><line class="cls-1" x1="56.18" y1="28.59" x2="56.18" y2="28.59"/><line class="cls-1" x1="56.18" y1="28.49" x2="56.18" y2="28.49"/><line class="cls-1" x1="54.44" y1="26.75" x2="54.44" y2="26.75"/><line class="cls-1" x1="40.33" y1="26.75" x2="40.33" y2="26.75"/><line class="cls-1" x1="40.33" y1="16.69" x2="40.33" y2="16.69"/><line class="cls-1" x1="39.89" y1="15.56" x2="39.89" y2="15.56"/><line class="cls-1" x1="38.3" y1="13.73" x2="38.3" y2="13.73"/><line class="cls-1" x1="37.42" y1="12.47" x2="37.42" y2="12.47"/><line class="cls-1" x1="33.72" y1="8.12" x2="33.72" y2="8.12"/><line class="cls-1" x1="21.27" y1="2.87" x2="21.27" y2="2.87"/><line class="cls-1" x1="21.27" y1="2.87" x2="21.27" y2="2.87"/><line class="cls-1" x1="21.28" y1="2.87" x2="21.28" y2="2.87"/><line class="cls-1" x1="23.27" y1="0.36" x2="23.27" y2="0.36"/><line class="cls-1" x1="25.25" y1="0.28" x2="25.25" y2="0.28"/><line class="cls-1" x1="50.2" y1="24.34" x2="50.2" y2="24.34"/><line class="cls-1" x1="73.42" y1="24.34" x2="73.42" y2="24.34"/><line class="cls-1" x1="77.61" y1="28.52" x2="77.61" y2="28.52"/><line class="cls-1" x1="77.61" y1="56.84" x2="77.61" y2="56.84"/><line class="cls-1" x1="73.42" y1="61.02" x2="73.42" y2="61.02"/><line class="cls-1" x1="4.47" y1="61.02" x2="4.47" y2="61.02"/><line class="cls-1" x1="0.29" y1="56.84" x2="0.29" y2="56.84"/><line class="cls-1" x1="0.29" y1="25.66" x2="0.29" y2="25.66"/><line class="cls-1" x1="0.28" y1="25.25" x2="0.28" y2="25.25"/><line class="cls-1" x1="0.29" y1="24.85" x2="0.29" y2="24.85"/><line class="cls-1" x1="0.29" y1="24.34" x2="0.29" y2="24.34"/><line class="cls-1" x1="0.3" y1="24.34" x2="0.3" y2="24.34"/><line class="cls-1" x1="17.21" y1="1.61" x2="17.21" y2="1.61"/><line class="cls-1" x1="9.14" y1="12.9" x2="9.14" y2="12.9"/><line class="cls-1" x1="9.97" y1="13.74" x2="9.97" y2="13.74"/><line class="cls-1" x1="10.81" y1="12.9" x2="10.81" y2="12.9"/><line class="cls-1" x1="9.97" y1="12.06" x2="9.97" y2="12.06"/><line class="cls-1" x1="39.64" y1="12.88" x2="39.64" y2="12.88"/><line class="cls-1" x1="40.48" y1="13.71" x2="40.48" y2="13.71"/><line class="cls-1" x1="41.32" y1="12.88" x2="41.32" y2="12.88"/><line class="cls-1" x1="40.48" y1="12.04" x2="40.48" y2="12.04"/><path class="cls-1" d="M710.15,513.64H686.93A25,25,0,0,0,662,489.59c-.67,0-1.33,0-2,.08-.67.83-1.33,1.67-2,2.5h0l-.22.28a1.44,1.44,0,0,1-.27.28,1.68,1.68,0,0,1-2.36-.28l-.22-.28-1-1.26A25,25,0,0,0,637,513.64h0v32.51a4.2,4.2,0,0,0,4.19,4.18h68.95a4.19,4.19,0,0,0,4.18-4.18V517.83A4.19,4.19,0,0,0,710.15,513.64Z" transform="translate(-636.73 -489.31)"/><path class="cls-1" d="M710.15,513.64H686.93A25,25,0,0,0,662,489.59c-.67,0-1.33,0-2,.08-.67.83-1.33,1.67-2,2.5h0l-.22.28a1.44,1.44,0,0,1-.27.28,1.68,1.68,0,0,1-2.36-.28l-.22-.28-1-1.26A25,25,0,0,0,637,513.64h0v32.51a4.2,4.2,0,0,0,4.19,4.18h68.95a4.19,4.19,0,0,0,4.18-4.18V517.83A4.19,4.19,0,0,0,710.15,513.64Z" transform="translate(-636.73 -489.31)"/><path class="cls-1" d="M665.85,494.31a21.09,21.09,0,0,1,4.59,3.11,20.85,20.85,0,0,1,3.71,4.35c.28.43.57.85.88,1.26.51.64,1,1.25,1.59,1.84a1.68,1.68,0,0,1-1.24,2.8H652.09a1.68,1.68,0,0,1-1.68-1.67V494.31Z" transform="translate(-636.73 -489.31)"/><path class="cls-1" d="M665.85,494.31a21.09,21.09,0,0,1,4.59,3.11,20.85,20.85,0,0,1,3.71,4.35c.28.43.57.85.88,1.26.51.64,1,1.25,1.59,1.84a1.68,1.68,0,0,1-1.24,2.8H652.09a1.68,1.68,0,0,1-1.68-1.67V494.31Z" transform="translate(-636.73 -489.31)"/><path class="cls-1" d="M653,539.42a5.64,5.64,0,1,1-5.63-5.63A5.64,5.64,0,0,1,653,539.42Z" transform="translate(-636.73 -489.31)"/><path class="cls-1" d="M653,539.42a5.64,5.64,0,1,1-5.63-5.63A5.64,5.64,0,0,1,653,539.42Z" transform="translate(-636.73 -489.31)"/><path class="cls-1" d="M653,523.63a5.64,5.64,0,1,1-5.63-5.63A5.63,5.63,0,0,1,653,523.63Z" transform="translate(-636.73 -489.31)"/><path class="cls-1" d="M653,523.63a5.64,5.64,0,1,1-5.63-5.63A5.63,5.63,0,0,1,653,523.63Z" transform="translate(-636.73 -489.31)"/><path class="cls-1" d="M671.85,539.42a5.64,5.64,0,1,1-5.64-5.63A5.65,5.65,0,0,1,671.85,539.42Z" transform="translate(-636.73 -489.31)"/><path class="cls-1" d="M671.85,539.42a5.64,5.64,0,1,1-5.64-5.63A5.65,5.65,0,0,1,671.85,539.42Z" transform="translate(-636.73 -489.31)"/><path class="cls-1" d="M671.85,523.63a5.64,5.64,0,1,1-5.64-5.63A5.64,5.64,0,0,1,671.85,523.63Z" transform="translate(-636.73 -489.31)"/><path class="cls-1" d="M671.85,523.63a5.64,5.64,0,1,1-5.64-5.63A5.64,5.64,0,0,1,671.85,523.63Z" transform="translate(-636.73 -489.31)"/><path class="cls-1" d="M690.66,539.42a5.64,5.64,0,1,1-5.64-5.63A5.65,5.65,0,0,1,690.66,539.42Z" transform="translate(-636.73 -489.31)"/><path class="cls-1" d="M690.66,539.42a5.64,5.64,0,1,1-5.64-5.63A5.65,5.65,0,0,1,690.66,539.42Z" transform="translate(-636.73 -489.31)"/><path class="cls-1" d="M690.66,523.63A5.64,5.64,0,1,1,685,518,5.64,5.64,0,0,1,690.66,523.63Z" transform="translate(-636.73 -489.31)"/><path class="cls-1" d="M690.66,523.63A5.64,5.64,0,1,1,685,518,5.64,5.64,0,0,1,690.66,523.63Z" transform="translate(-636.73 -489.31)"/><path class="cls-1" d="M709.48,523.63a5.64,5.64,0,1,1-5.64-5.63A5.64,5.64,0,0,1,709.48,523.63Z" transform="translate(-636.73 -489.31)"/><path class="cls-1" d="M709.48,523.63a5.64,5.64,0,1,1-5.64-5.63A5.64,5.64,0,0,1,709.48,523.63Z" transform="translate(-636.73 -489.31)"/><path class="cls-1" d="M709.48,539.42a5.64,5.64,0,1,1-5.64-5.63A5.65,5.65,0,0,1,709.48,539.42Z" transform="translate(-636.73 -489.31)"/><path class="cls-1" d="M709.48,539.42a5.64,5.64,0,1,1-5.64-5.63A5.65,5.65,0,0,1,709.48,539.42Z" transform="translate(-636.73 -489.31)"/><circle class="cls-1" cx="9.98" cy="12.85" r="0.84"/><circle class="cls-1" cx="9.98" cy="12.85" r="0.84"/><circle class="cls-1" cx="40.49" cy="12.83" r="0.84"/><circle class="cls-1" cx="40.49" cy="12.83" r="0.84"/><line class="cls-1" x1="73.42" y1="24.34" x2="73.42" y2="24.34"/><line class="cls-1" x1="50.2" y1="24.34" x2="50.2" y2="24.34"/><line class="cls-1" x1="25.25" y1="0.28" x2="25.25" y2="0.28"/><line class="cls-1" x1="23.27" y1="0.36" x2="23.27" y2="0.36"/><line class="cls-1" x1="21.28" y1="2.87" x2="21.28" y2="2.87"/><line class="cls-1" x1="21.27" y1="2.87" x2="21.27" y2="2.87"/><line class="cls-1" x1="21.05" y1="3.15" x2="21.05" y2="3.15"/><line class="cls-1" x1="20.78" y1="3.42" x2="20.78" y2="3.42"/><line class="cls-1" x1="18.43" y1="3.15" x2="18.43" y2="3.15"/><line class="cls-1" x1="18.21" y1="2.87" x2="18.21" y2="2.87"/><line class="cls-1" x1="17.21" y1="1.61" x2="17.21" y2="1.61"/><line class="cls-1" x1="0.3" y1="24.34" x2="0.3" y2="24.34"/><line class="cls-1" x1="0.29" y1="24.34" x2="0.29" y2="24.34"/><line class="cls-1" x1="0.29" y1="24.85" x2="0.29" y2="24.85"/><line class="cls-1" x1="0.28" y1="25.25" x2="0.28" y2="25.25"/><line class="cls-1" x1="0.29" y1="25.66" x2="0.29" y2="25.66"/><line class="cls-1" x1="0.29" y1="56.84" x2="0.29" y2="56.84"/><line class="cls-1" x1="4.47" y1="61.02" x2="4.47" y2="61.02"/><line class="cls-1" x1="73.42" y1="61.02" x2="73.42" y2="61.02"/><line class="cls-1" x1="77.61" y1="56.84" x2="77.61" y2="56.84"/><line class="cls-1" x1="77.61" y1="28.52" x2="77.61" y2="28.52"/><line class="cls-1" x1="29.12" y1="5.01" x2="29.12" y2="5.01"/><line class="cls-1" x1="33.72" y1="8.12" x2="33.72" y2="8.12"/><line class="cls-1" x1="37.42" y1="12.47" x2="37.42" y2="12.47"/><line class="cls-1" x1="38.3" y1="13.73" x2="38.3" y2="13.73"/><line class="cls-1" x1="39.89" y1="15.56" x2="39.89" y2="15.56"/><line class="cls-1" x1="40.33" y1="16.69" x2="40.33" y2="16.69"/><line class="cls-1" x1="38.65" y1="18.36" x2="38.65" y2="18.36"/><line class="cls-1" x1="15.36" y1="18.36" x2="15.36" y2="18.36"/><line class="cls-1" x1="13.69" y1="16.69" x2="13.69" y2="16.69"/><line class="cls-1" x1="13.69" y1="5.01" x2="13.69" y2="5.01"/><line class="cls-1" x1="16.32" y1="50.12" x2="16.32" y2="50.12"/><line class="cls-1" x1="10.68" y1="55.75" x2="10.68" y2="55.75"/><line class="cls-1" x1="5.05" y1="50.12" x2="5.05" y2="50.12"/><line class="cls-1" x1="10.68" y1="44.48" x2="10.68" y2="44.48"/><line class="cls-1" x1="16.32" y1="34.33" x2="16.32" y2="34.33"/><line class="cls-1" x1="10.68" y1="39.96" x2="10.68" y2="39.96"/><line class="cls-1" x1="5.05" y1="34.33" x2="5.05" y2="34.33"/><line class="cls-1" x1="10.68" y1="28.69" x2="10.68" y2="28.69"/><line class="cls-1" x1="35.12" y1="50.12" x2="35.12" y2="50.12"/><line class="cls-1" x1="29.49" y1="55.75" x2="29.49" y2="55.75"/><line class="cls-1" x1="23.85" y1="50.12" x2="23.85" y2="50.12"/><line class="cls-1" x1="29.49" y1="44.48" x2="29.49" y2="44.48"/><line class="cls-1" x1="35.12" y1="34.33" x2="35.12" y2="34.33"/><line class="cls-1" x1="29.49" y1="39.96" x2="29.49" y2="39.96"/><line class="cls-1" x1="23.85" y1="34.33" x2="23.85" y2="34.33"/><line class="cls-1" x1="29.49" y1="28.69" x2="29.49" y2="28.69"/><line class="cls-1" x1="53.93" y1="50.12" x2="53.93" y2="50.12"/><line class="cls-1" x1="48.3" y1="55.75" x2="48.3" y2="55.75"/><line class="cls-1" x1="42.66" y1="50.12" x2="42.66" y2="50.12"/><line class="cls-1" x1="48.3" y1="44.48" x2="48.3" y2="44.48"/><line class="cls-1" x1="53.93" y1="34.33" x2="53.93" y2="34.33"/><line class="cls-1" x1="48.3" y1="39.96" x2="48.3" y2="39.96"/><line class="cls-1" x1="42.66" y1="34.33" x2="42.66" y2="34.33"/><line class="cls-1" x1="48.3" y1="28.69" x2="48.3" y2="28.69"/><line class="cls-1" x1="72.75" y1="34.33" x2="72.75" y2="34.33"/><line class="cls-1" x1="67.11" y1="39.96" x2="67.11" y2="39.96"/><line class="cls-1" x1="61.48" y1="34.33" x2="61.48" y2="34.33"/><line class="cls-1" x1="67.11" y1="28.69" x2="67.11" y2="28.69"/><line class="cls-1" x1="72.75" y1="50.12" x2="72.75" y2="50.12"/><line class="cls-1" x1="67.11" y1="55.75" x2="67.11" y2="55.75"/><line class="cls-1" x1="61.48" y1="50.12" x2="61.48" y2="50.12"/><line class="cls-1" x1="67.11" y1="44.48" x2="67.11" y2="44.48"/><line class="cls-1" x1="9.14" y1="12.85" x2="9.14" y2="12.85"/><line class="cls-1" x1="9.98" y1="12.01" x2="9.98" y2="12.01"/><line class="cls-1" x1="10.81" y1="12.85" x2="10.81" y2="12.85"/><line class="cls-1" x1="9.98" y1="13.69" x2="9.98" y2="13.69"/><line class="cls-1" x1="39.65" y1="12.83" x2="39.65" y2="12.83"/><line class="cls-1" x1="40.49" y1="11.99" x2="40.49" y2="11.99"/><line class="cls-1" x1="41.32" y1="12.83" x2="41.32" y2="12.83"/><line class="cls-1" x1="40.49" y1="13.66" x2="40.49" y2="13.66"/></g><g id="scocca_color" data-name="scocca color"><path class="cls-1" d="M645.85,502.24a.84.84,0,1,1,.83.83A.83.83,0,0,1,645.85,502.24Z" transform="translate(-636.73 -489.31)"/><path class="cls-1" d="M645.85,502.24a.84.84,0,1,1,.83.83A.83.83,0,0,1,645.85,502.24Z" transform="translate(-636.73 -489.31)"/><path class="cls-1" d="M676.36,502.21a.84.84,0,1,1,.83.84A.84.84,0,0,1,676.36,502.21Z" transform="translate(-636.73 -489.31)"/><path class="cls-1" d="M676.36,502.21a.84.84,0,1,1,.83.84A.84.84,0,0,1,676.36,502.21Z" transform="translate(-636.73 -489.31)"/><line class="cls-1" x1="0.28" y1="24.32" x2="0.28" y2="24.32"/><line class="cls-1" x1="50.18" y1="24.32" x2="50.18" y2="24.32"/><line class="cls-1" x1="25.23" y1="0.28" x2="25.23" y2="0.28"/><line class="cls-1" x1="9.12" y1="12.93" x2="9.12" y2="12.93"/><line class="cls-1" x1="9.96" y1="12.09" x2="9.96" y2="12.09"/><line class="cls-1" x1="10.8" y1="12.93" x2="10.8" y2="12.93"/><line class="cls-1" x1="9.96" y1="13.77" x2="9.96" y2="13.77"/><line class="cls-1" x1="39.63" y1="12.91" x2="39.63" y2="12.91"/><line class="cls-1" x1="40.47" y1="12.07" x2="40.47" y2="12.07"/><line class="cls-1" x1="41.3" y1="12.91" x2="41.3" y2="12.91"/><line class="cls-1" x1="40.47" y1="13.74" x2="40.47" y2="13.74"/><path class="cls-1" d="M645.85,502.24a.84.84,0,1,1,.83.83A.83.83,0,0,1,645.85,502.24Z" transform="translate(-636.73 -489.31)"/><path class="cls-1" d="M645.85,502.24a.84.84,0,1,1,.83.83A.83.83,0,0,1,645.85,502.24Z" transform="translate(-636.73 -489.31)"/><path class="cls-1" d="M676.36,502.21a.84.84,0,1,1,.83.84A.84.84,0,0,1,676.36,502.21Z" transform="translate(-636.73 -489.31)"/><path class="cls-1" d="M676.36,502.21a.84.84,0,1,1,.83.84A.84.84,0,0,1,676.36,502.21Z" transform="translate(-636.73 -489.31)"/><line class="cls-1" x1="0.28" y1="24.32" x2="0.28" y2="24.32"/><line class="cls-1" x1="50.18" y1="24.32" x2="50.18" y2="24.32"/><line class="cls-1" x1="25.23" y1="0.28" x2="25.23" y2="0.28"/><line class="cls-1" x1="17.76" y1="14.79" x2="17.76" y2="14.79"/><line class="cls-1" x1="17.76" y1="11.44" x2="17.76" y2="11.44"/><line class="cls-1" x1="21.67" y1="11.44" x2="21.67" y2="11.44"/><line class="cls-1" x1="21.67" y1="14.79" x2="21.67" y2="14.79"/><line class="cls-1" x1="9.12" y1="12.93" x2="9.12" y2="12.93"/><line class="cls-1" x1="9.96" y1="12.09" x2="9.96" y2="12.09"/><line class="cls-1" x1="10.8" y1="12.93" x2="10.8" y2="12.93"/><line class="cls-1" x1="9.96" y1="13.77" x2="9.96" y2="13.77"/><line class="cls-1" x1="39.63" y1="12.91" x2="39.63" y2="12.91"/><line class="cls-1" x1="40.47" y1="12.07" x2="40.47" y2="12.07"/><line class="cls-1" x1="41.3" y1="12.91" x2="41.3" y2="12.91"/><line class="cls-1" x1="40.47" y1="13.74" x2="40.47" y2="13.74"/><path class="cls-1" d="M710.15,513.64H686.93A25,25,0,0,0,662,489.59c-.67,0-1.33,0-2,.08-.67.83-1.33,1.67-2,2.5h0l-.22.28a1.44,1.44,0,0,1-.27.28,1.68,1.68,0,0,1-2.36-.28l-.22-.28-1-1.26A25,25,0,0,0,637,513.64h0v32.51a4.2,4.2,0,0,0,4.19,4.18h68.95a4.19,4.19,0,0,0,4.18-4.18V517.83A4.19,4.19,0,0,0,710.15,513.64Z" transform="translate(-636.73 -489.31)"/><path class="cls-1" d="M710.15,513.64H686.93A25,25,0,0,0,662,489.59c-.67,0-1.33,0-2,.08-.67.83-1.33,1.67-2,2.5h0l-.22.28a1.44,1.44,0,0,1-.27.28,1.68,1.68,0,0,1-2.36-.28l-.22-.28-1-1.26A25,25,0,0,0,637,513.64h0v32.51a4.2,4.2,0,0,0,4.19,4.18h68.95a4.19,4.19,0,0,0,4.18-4.18V517.83A4.19,4.19,0,0,0,710.15,513.64Z" transform="translate(-636.73 -489.31)"/><path class="cls-1" d="M667.56,504.32h7.82a1.68,1.68,0,0,1,0,3.35h-7.82a1.68,1.68,0,1,1,0-3.35Z" transform="translate(-636.73 -489.31)"/><path class="cls-1" d="M667.56,504.32h7.82a1.68,1.68,0,0,1,0,3.35h-7.82a1.68,1.68,0,1,1,0-3.35Z" transform="translate(-636.73 -489.31)"/><rect class="cls-1" x="16.77" y="10.93" width="9.79" height="5.54" rx="1.67" ry="1.67"/><rect class="cls-1" x="16.77" y="10.93" width="9.79" height="5.54" rx="1.67" ry="1.67"/><circle class="cls-1" cx="9.98" cy="12.85" r="0.84"/><circle class="cls-1" cx="9.98" cy="12.85" r="0.84"/><circle class="cls-1" cx="40.49" cy="12.83" r="0.84"/><circle class="cls-1" cx="40.49" cy="12.83" r="0.84"/><line class="cls-1" x1="73.42" y1="24.34" x2="73.42" y2="24.34"/><line class="cls-1" x1="50.2" y1="24.34" x2="50.2" y2="24.34"/><line class="cls-1" x1="25.25" y1="0.28" x2="25.25" y2="0.28"/><line class="cls-1" x1="23.27" y1="0.36" x2="23.27" y2="0.36"/><line class="cls-1" x1="21.28" y1="2.87" x2="21.28" y2="2.87"/><line class="cls-1" x1="21.27" y1="2.87" x2="21.27" y2="2.87"/><line class="cls-1" x1="21.05" y1="3.15" x2="21.05" y2="3.15"/><line class="cls-1" x1="20.78" y1="3.42" x2="20.78" y2="3.42"/><line class="cls-1" x1="18.43" y1="3.15" x2="18.43" y2="3.15"/><line class="cls-1" x1="18.21" y1="2.87" x2="18.21" y2="2.87"/><line class="cls-1" x1="17.21" y1="1.61" x2="17.21" y2="1.61"/><line class="cls-1" x1="0.3" y1="24.34" x2="0.3" y2="24.34"/><line class="cls-1" x1="0.29" y1="24.34" x2="0.29" y2="24.34"/><line class="cls-1" x1="0.29" y1="24.85" x2="0.29" y2="24.85"/><line class="cls-1" x1="0.28" y1="25.25" x2="0.28" y2="25.25"/><line class="cls-1" x1="0.29" y1="25.66" x2="0.29" y2="25.66"/><line class="cls-1" x1="0.29" y1="56.84" x2="0.29" y2="56.84"/><line class="cls-1" x1="4.47" y1="61.02" x2="4.47" y2="61.02"/><line class="cls-1" x1="73.42" y1="61.02" x2="73.42" y2="61.02"/><line class="cls-1" x1="77.61" y1="56.84" x2="77.61" y2="56.84"/><line class="cls-1" x1="77.61" y1="28.52" x2="77.61" y2="28.52"/><line class="cls-1" x1="30.83" y1="15.02" x2="30.83" y2="15.02"/><line class="cls-1" x1="38.65" y1="15.02" x2="38.65" y2="15.02"/><line class="cls-1" x1="40.33" y1="16.69" x2="40.33" y2="16.69"/><line class="cls-1" x1="38.65" y1="18.36" x2="38.65" y2="18.36"/><line class="cls-1" x1="30.83" y1="18.36" x2="30.83" y2="18.36"/><line class="cls-1" x1="29.16" y1="16.69" x2="29.16" y2="16.69"/><line class="cls-1" x1="16.77" y1="12.6" x2="16.77" y2="12.6"/><line class="cls-1" x1="18.44" y1="10.93" x2="18.44" y2="10.93"/><line class="cls-1" x1="24.89" y1="10.93" x2="24.89" y2="10.93"/><line class="cls-1" x1="26.56" y1="12.6" x2="26.56" y2="12.6"/><line class="cls-1" x1="26.56" y1="14.8" x2="26.56" y2="14.8"/><line class="cls-1" x1="24.89" y1="16.47" x2="24.89" y2="16.47"/><line class="cls-1" x1="18.44" y1="16.47" x2="18.44" y2="16.47"/><line class="cls-1" x1="16.77" y1="14.8" x2="16.77" y2="14.8"/><line class="cls-1" x1="9.14" y1="12.85" x2="9.14" y2="12.85"/><line class="cls-1" x1="9.98" y1="12.01" x2="9.98" y2="12.01"/><line class="cls-1" x1="10.81" y1="12.85" x2="10.81" y2="12.85"/><line class="cls-1" x1="9.98" y1="13.69" x2="9.98" y2="13.69"/><line class="cls-1" x1="39.65" y1="12.83" x2="39.65" y2="12.83"/><line class="cls-1" x1="40.49" y1="11.99" x2="40.49" y2="11.99"/><line class="cls-1" x1="41.32" y1="12.83" x2="41.32" y2="12.83"/><line class="cls-1" x1="40.49" y1="13.66" x2="40.49" y2="13.66"/></g><g id="tasti"><path class="cls-1" d="M671.8,539.35a5.64,5.64,0,1,0-5.64,5.64A5.65,5.65,0,0,0,671.8,539.35Z" transform="translate(-636.73 -489.31)"/><path class="cls-1" d="M671.8,539.35a5.64,5.64,0,1,0-5.64,5.64A5.65,5.65,0,0,0,671.8,539.35Z" transform="translate(-636.73 -489.31)"/><line class="cls-1" x1="35.07" y1="50.04" x2="35.07" y2="50.04"/><line class="cls-1" x1="29.43" y1="44.41" x2="29.43" y2="44.41"/><line class="cls-1" x1="23.8" y1="50.04" x2="23.8" y2="50.04"/><line class="cls-1" x1="29.43" y1="55.68" x2="29.43" y2="55.68"/><path class="cls-1" d="M709.42,523.56a5.64,5.64,0,1,0-5.63,5.64A5.63,5.63,0,0,0,709.42,523.56Z" transform="translate(-636.73 -489.31)"/><path class="cls-1" d="M709.42,523.56a5.64,5.64,0,1,0-5.63,5.64A5.63,5.63,0,0,0,709.42,523.56Z" transform="translate(-636.73 -489.31)"/><line class="cls-1" x1="72.7" y1="34.26" x2="72.7" y2="34.26"/><line class="cls-1" x1="67.06" y1="28.62" x2="67.06" y2="28.62"/><line class="cls-1" x1="61.43" y1="34.26" x2="61.43" y2="34.26"/><line class="cls-1" x1="67.06" y1="39.89" x2="67.06" y2="39.89"/><path class="cls-1" d="M671.8,523.56a5.64,5.64,0,1,0-5.64,5.64A5.64,5.64,0,0,0,671.8,523.56Z" transform="translate(-636.73 -489.31)"/><path class="cls-1" d="M671.8,523.56a5.64,5.64,0,1,0-5.64,5.64A5.64,5.64,0,0,0,671.8,523.56Z" transform="translate(-636.73 -489.31)"/><line class="cls-1" x1="35.07" y1="34.26" x2="35.07" y2="34.26"/><line class="cls-1" x1="29.43" y1="28.62" x2="29.43" y2="28.62"/><line class="cls-1" x1="23.8" y1="34.26" x2="23.8" y2="34.26"/><line class="cls-1" x1="29.43" y1="39.89" x2="29.43" y2="39.89"/><path class="cls-1" d="M690.61,539.35A5.64,5.64,0,1,0,685,545,5.65,5.65,0,0,0,690.61,539.35Z" transform="translate(-636.73 -489.31)"/><path class="cls-1" d="M690.61,539.35A5.64,5.64,0,1,0,685,545,5.65,5.65,0,0,0,690.61,539.35Z" transform="translate(-636.73 -489.31)"/><line class="cls-1" x1="53.88" y1="50.04" x2="53.88" y2="50.04"/><line class="cls-1" x1="48.24" y1="44.41" x2="48.24" y2="44.41"/><line class="cls-1" x1="42.61" y1="50.04" x2="42.61" y2="50.04"/><line class="cls-1" x1="48.24" y1="55.68" x2="48.24" y2="55.68"/><path class="cls-1" d="M690.61,523.56A5.64,5.64,0,1,0,685,529.2,5.64,5.64,0,0,0,690.61,523.56Z" transform="translate(-636.73 -489.31)"/><path class="cls-1" d="M690.61,523.56A5.64,5.64,0,1,0,685,529.2,5.64,5.64,0,0,0,690.61,523.56Z" transform="translate(-636.73 -489.31)"/><line class="cls-1" x1="53.88" y1="34.26" x2="53.88" y2="34.26"/><line class="cls-1" x1="48.24" y1="28.62" x2="48.24" y2="28.62"/><line class="cls-1" x1="42.61" y1="34.26" x2="42.61" y2="34.26"/><line class="cls-1" x1="48.24" y1="39.89" x2="48.24" y2="39.89"/><path class="cls-1" d="M653,539.35a5.64,5.64,0,1,0-5.63,5.64A5.64,5.64,0,0,0,653,539.35Z" transform="translate(-636.73 -489.31)"/><path class="cls-1" d="M653,539.35a5.64,5.64,0,1,0-5.63,5.64A5.64,5.64,0,0,0,653,539.35Z" transform="translate(-636.73 -489.31)"/><line class="cls-1" x1="16.27" y1="50.04" x2="16.27" y2="50.04"/><line class="cls-1" x1="10.63" y1="44.41" x2="10.63" y2="44.41"/><line class="cls-1" x1="5" y1="50.04" x2="5" y2="50.04"/><line class="cls-1" x1="10.63" y1="55.68" x2="10.63" y2="55.68"/><path class="cls-1" d="M653,523.56a5.64,5.64,0,1,0-5.63,5.64A5.63,5.63,0,0,0,653,523.56Z" transform="translate(-636.73 -489.31)"/><path class="cls-1" d="M653,523.56a5.64,5.64,0,1,0-5.63,5.64A5.63,5.63,0,0,0,653,523.56Z" transform="translate(-636.73 -489.31)"/><line class="cls-1" x1="16.27" y1="34.26" x2="16.27" y2="34.26"/><line class="cls-1" x1="10.63" y1="28.62" x2="10.63" y2="28.62"/><line class="cls-1" x1="5" y1="34.26" x2="5" y2="34.26"/><line class="cls-1" x1="10.63" y1="39.89" x2="10.63" y2="39.89"/><path class="cls-1" d="M709.42,539.35a5.64,5.64,0,1,0-5.63,5.64A5.64,5.64,0,0,0,709.42,539.35Z" transform="translate(-636.73 -489.31)"/><path class="cls-1" d="M709.42,539.35a5.64,5.64,0,1,0-5.63,5.64A5.64,5.64,0,0,0,709.42,539.35Z" transform="translate(-636.73 -489.31)"/><line class="cls-1" x1="72.7" y1="50.04" x2="72.7" y2="50.04"/><line class="cls-1" x1="67.06" y1="44.41" x2="67.06" y2="44.41"/><line class="cls-1" x1="61.43" y1="50.04" x2="61.43" y2="50.04"/><line class="cls-1" x1="67.06" y1="55.68" x2="67.06" y2="55.68"/></g></svg>