<svg id="Livello_1" data-name="Livello 1" xmlns="http://www.w3.org/2000/svg" viewBox="0 0 1034.13 314.25"><defs><style>.cls-1,.cls-3,.cls-4{fill:none;stroke:#000;stroke-miterlimit:10;}.cls-1{stroke-width:2.83px;}.cls-2{fill:#fff;}.cls-3,.cls-4{stroke-width:5.67px;}.cls-4{stroke-linecap:round;}</style></defs><title>rauco_midi</title><path class="cls-1" d="M561.28,616.25c9.74-37,17.68-75.37,12.35-113.64-2-13-8.47-37.05-26.12-30.55-22.25,8.16-38,32.54-50.41,51.9a431.54,431.54,0,0,1,37,92.21H513.94c-8.57-24.58-16-48-28.29-71.33a413.75,413.75,0,0,0-27.92,71.41H437.42C441,600.43,454.68,559,474.15,524c-11.85-18.89-25.12-38.53-45-49.79-23-13.57-31,17.78-32.4,34.9-3.66,36.43,4.43,72,13.11,107.09H389.68C378.34,575,366.91,511.26,386.83,471.8c9.48-18.67,29.07-25.63,48-16.88,22.68,9.73,36.58,30.63,50.68,49.78,8.5-11.77,16.69-23.57,27.44-33.51,20.79-21,53.4-31.26,70.81-.57,20.7,38.79,9.29,104.71-2.28,145.69Z" transform="translate(-40.29 -388.13)"/><path class="cls-1" d="M631,451H775.63c12.17,0,19.25,10.49,19.25,23V616.14H754.52V492.59H730.93V616.14H694.31V492.59h-23V616.14H631Z" transform="translate(-40.29 -388.13)"/><rect class="cls-1" x="774.45" y="62.87" width="40.35" height="165.14"/><path class="cls-1" d="M874.34,451H994.16c12.16,0,19.24,10.49,19.24,23V595.65c0,15.46-6.45,20.49-20.48,20.49H874.34V511.22h41v64.56h57.74V488.25H874.34Z" transform="translate(-40.29 -388.13)"/><rect class="cls-1" x="991.73" y="62.87" width="40.97" height="165.14"/><path d="M269.89,609.37c8.81-4.84,20.31-3.37,28-10.42,5.47-5,11.16-17.28,4.77-23.65-5.54-5.53-17.21-4.93-24.33-4.42-8.06.59-30.29,7-25.88-8.68,1.56-5.52,5.12-10.25,6.86-15.7a28.94,28.94,0,0,0,.79-10.73c-.67-9.95-2.76-19.76-3.47-29.71-.58-8.11-1.32-20.72,6.87-25.55,8-4.71,17.84,4.61,26.46,3.29s13-12.59,8-19.57c-5.63-7.85-16.71-10.33-25.07-14-1.73-.77-3.27,1.71-1.51,2.59,9.17,4.63,22.9,11.07,33.37,7.47,9.7-3.33,7.87-16.73,1.79-22.58-4.9-4.72-10.7-8.61-16.26-12.49-6.94-4.84-13.86-9.32-21.68-12.67a103.57,103.57,0,0,0-30-7.78c-8.93-1-17.58-1.77-25.66-5.87-4.44-2.25-27.16-17.2-29.75-6.8l2.75-.36c-1.92-2.7-4.7-5.1-7.71-2.36-2.71,2.46-2.47,7.53-5.1,9.67h2.12a13.74,13.74,0,0,0-5-3.08c-1.58-.57-2.72,2.07-1.16,2.75-1.52-.66-.19-.78-.87.61a12.31,12.31,0,0,0-.53,2.51c-.36,1.61-.75,3.21-1.16,4.8-.91,3.51-2,6.76-4.45,9.54s-5.86,3.63-9,5.09A78.86,78.86,0,0,0,140,429c-5.91,4.3-10.82,9.57-13.8,16.3-3.57,8.06-4.65,17.06-5.89,25.7-1.75,12.19-3.69,24.83-9.86,35.71-4.24,7.47-11.16,11.72-18.12,16.36-5.28,3.52-9.62,6.79-11.19,13.12a86.71,86.71,0,0,1-2.83,10c-2.36,6.23-7.2,10.39-10.95,15.7-3,4.25-4.15,8.76-5,13.86-.53,3.33-.84,7-2.6,10-1.42,2.37-3.77,4-5.92,5.65-5.34,4.08-10,8.24-10.84,15.15a202,202,0,0,0-1.42,21.72c-.11,5.66-.21,10.28,4.84,14.12,5.87,4.47,12.56-1.1,18.2-3.13,12.5-4.48,26.35.44,38.76,2.79,22.59,4.29,45.81,12.26,68.78,6.63,11.4-2.79,22.25-6.38,34.09-6.37,7.47,0,15,.27,22.4-.53,6.24-.66,13.37-1.89,18.16-6.32,5.05-4.69,5.05-11.45,3.34-17.68l-1.84,1.85c4.46.91,10,3.66,14.59,2.54,4.82-1.17,6.8-6.88,7.42-11.25,1.71-12.24-10-18-20.36-19.12-1.92-.2-1.9,2.8,0,3,9,1,19.44,6,17.22,16.72-.82,3.95-2.46,8-7,7.81-3.68-.17-7.45-1.86-11.05-2.6a1.52,1.52,0,0,0-1.84,1.85c1.81,6.62,1.16,13-5.27,16.65-5.65,3.18-12.75,3.68-19.08,4s-12.7,0-19.06.12c-9.44.13-18.41,2.68-27.47,5.15a80.38,80.38,0,0,1-36.58,1.83c-11.33-2-22.5-4.78-33.82-6.81-11.83-2.12-23.65-6-35.81-4.57a34.22,34.22,0,0,0-10.45,3.19c-3.84,1.78-8.34,4.81-12.12,1.35-4.85-4.45-3-12.52-2.75-18.38.28-5.63-.31-13.21,2.18-18.42,3.71-7.74,13.62-9.89,16.56-18.17,2-5.58,1.43-11.8,4-17.22,2.38-5,6.74-8.72,9.92-13.2a38,38,0,0,0,5.23-11.86c.79-2.8,1-6,2.33-8.6,3.24-6.62,12.57-10.06,18.21-14.39,15.52-11.9,17.73-33.16,20.43-51.13,1.31-8.7,2.63-17.95,7.3-25.59,5.13-8.38,14.28-14.22,23-18.35,6.56-3.11,11.72-5.34,14.33-12.77.72-2,5.1-14,2.28-15.23l-1.16,2.74a7.9,7.9,0,0,1,3.69,2.3,1.54,1.54,0,0,0,2.12,0c2.61-2.12,3.84-13.92,8.1-7.92a1.52,1.52,0,0,0,2.74-.35c1.32-5.33,23.19,7.53,26.16,9,13.88,6.94,30.17,4.63,44.73,9.4,13.76,4.5,25.45,11.83,37,20.24,4.14,3,9.92,6.39,12.74,10.83,2.33,3.67,2.95,11.16-.95,14-4.19,3.09-11.06,1.56-15.64.43a82.93,82.93,0,0,1-17.3-6.62l-1.51,2.59c7.61,3.38,16.91,5.54,22.87,11.7,4,4.11,3.77,9.94-.33,14.08-3.86,3.9-9.55,2.13-14.1.65-7-2.28-14.34-5.21-20.46.65-5.4,5.18-6.08,13.58-6,20.61.09,9.5,1.82,18.89,3,28.29a72,72,0,0,1,.83,12.18c-.22,4.95-2.69,9.13-4.78,13.5-3.2,6.72-6.82,16.65,2.42,20.28,8.41,3.31,18.37-.93,27-.91,5.22,0,11.45-.33,16.27,2,6.55,3.18,4.16,11.15,1.32,16.26-6.38,11.45-20.87,9.09-31.08,14.7-1.69.93-.18,3.52,1.51,2.59Z" transform="translate(-40.29 -388.13)"/><path class="cls-2" d="M164.54,470.66c.84,1-1.9-4.13-2.73-3.64-2.94,1.72,1.5,3.78,1.79,4.42-.31-2.55-2-3.88-3.52-4.95,3.29-7.86,11.53-.75,8.84,4.21-2.78,5.11-8.84,1.79-9.88-2.4A35.86,35.86,0,0,1,164.54,470.66Z" transform="translate(-40.29 -388.13)"/><path d="M163.48,471.72a1.74,1.74,0,0,0,.45.36,1.52,1.52,0,0,0,2-.53c1.1-1.71-2.24-6.08-4-6.06a2.94,2.94,0,0,0-2.51,3.61c.45,1.57,2.17,2.08,2.89,3.1a1.51,1.51,0,0,0,2.74-1.15c-.46-2.66-2.12-4.33-4.22-5.86l.54,2.06c.75-1.67,2-3.39,4-2.51a4.52,4.52,0,0,1,2.55,3.5,3.21,3.21,0,0,1-3.23,3.54,5.29,5.29,0,0,1-4.21-3.88l-1.85,1.85a35.37,35.37,0,0,1,5.14,2.21,1.5,1.5,0,0,0,1.52-2.59,41.05,41.05,0,0,0-5.86-2.52c-1.09-.45-2.13.85-1.85,1.85.9,3.12,3.74,5.91,7.11,6.08a6.23,6.23,0,0,0,6.25-6.19,7.48,7.48,0,0,0-4.72-6.73c-3.33-1.23-6.11.91-7.45,3.87a1.55,1.55,0,0,0,.54,2,6.09,6.09,0,0,1,2.83,4.06l2.75-1.15a6.79,6.79,0,0,0-1.42-1.31c-.32-.25-1.75-1.85-2-1-.08.3,1.71,2.43,1.77,2.75l.15-1.15v0l2.05-.54.16.11C164.27,468.2,162.15,470.32,163.48,471.72Z" transform="translate(-40.29 -388.13)"/><circle class="cls-3" cx="240.9" cy="292.6" r="18.81"/><path class="cls-4" d="M133,699.54a21.23,21.23,0,1,0-27,0" transform="translate(-40.29 -388.13)"/><path class="cls-4" d="M164.08,663.83a20.15,20.15,0,1,0,25.62,0" transform="translate(-40.29 -388.13)"/><path class="cls-4" d="M246.76,668.77a18.82,18.82,0,1,0,0,23.91" transform="translate(-40.29 -388.13)"/><path class="cls-4" d="M74.87,694.26" transform="translate(-40.29 -388.13)"/><path class="cls-4" d="M43.15,699.55v-18h0A18.89,18.89,0,1,1,78.38,690a17.5,17.5,0,0,1-3.51,4.23" transform="translate(-40.29 -388.13)"/><line class="cls-4" x1="34.58" y1="306.13" x2="39.34" y2="310.89"/></svg>