<svg xmlns="http://www.w3.org/2000/svg" viewBox="0 0 241.57 197.11"><defs><style>.cls-1,.cls-2{fill:none;stroke-linecap:round;stroke-linejoin:round;stroke-width:0.28px;}.cls-1{stroke:#000;}.cls-2{stroke:#a2bacf;}</style></defs><title>Risorsa 1</title><g id="Livello_2" data-name="Livello 2"><g id="Predefinito"><path class="cls-1" d="M223.93,75.2,163,76.26C161.51,23.19,141.33-1.83,86.17,1.42l-5.93,7.9h0c-.23.29-.45.59-.67.88-2.64,3.52-5.37,3.3-7.94-.16q-1.87-2.52-3.74-5C29.42,18,16.53,39.27,15.58,78.81h0c0,.55,0,1.11,0,1.67,0,.88,0,1.77,0,2.66l1.14,100.91c.11,9.23,4,13.06,13.31,12.31l192.71-15.62c8.28-.67,10.46-5,10.55-12.68l1-81C234.39,79.5,232.27,75.06,223.93,75.2Z"/><path class="cls-1" d="M225.18,75.29,164.1,76.35C162.62,23.13,142.41-2,87.08,1.27l-6,7.92h0l-.67.89c-2.64,3.52-5.39,3.31-8-.16L68.72,4.85c-38.58,13-51.5,34.4-52.46,74.07h0l0,1.68c0,.88,0,1.77,0,2.66q.57,50.64,1.15,101.26c.1,9.26,4,13.11,13.34,12.35L224,181.15c8.3-.67,10.48-5,10.58-12.72q.5-40.6,1-81.2C235.67,79.61,233.55,75.14,225.18,75.29Z"/><path class="cls-1" d="M103.55,16.57a60.53,60.53,0,0,1,24,23.61c.78,1.34,1.61,2.64,2.49,3.92,1.43,1.95,2.92,3.83,4.49,5.67,3.54,4.25,2.26,8.61-3.51,8.65l-68.47.47c-3.78,0-5.14-1.7-5.16-5.35q-.14-18.88-.26-37.75Z"/><path class="cls-1" d="M104.5,16.47a60.56,60.56,0,0,1,24.05,23.69q1.19,2,2.5,3.93c1.44,1.95,2.93,3.85,4.51,5.69,3.54,4.26,2.27,8.64-3.52,8.68l-68.67.47c-3.79,0-5.15-1.7-5.18-5.37l-.25-37.88Z"/><path class="cls-1" d="M66.07,159.39c.07,12.14-4.41,17.74-16.71,18.82-12.64,1.12-17.8-4.27-17.87-16.74-.07-12.13,4.41-17.73,16.7-18.82C60.84,141.54,66,146.93,66.07,159.39Z"/><path class="cls-1" d="M66.9,159.77c.07,12.17-4.42,17.79-16.76,18.89-12.68,1.12-17.85-4.29-17.92-16.79C32.15,149.7,36.64,144.07,49,143,61.66,141.86,66.83,147.27,66.9,159.77Z"/><path class="cls-1" d="M65.77,109.68c.07,12.3-4.49,18-17,18.57-12.74.6-17.66-5-17.73-17.43-.08-12.29,4.48-18,17-18.56C60.77,91.66,65.7,97.23,65.77,109.68Z"/><path class="cls-1" d="M66.61,109.9c.07,12.33-4.5,18-17.1,18.63-12.78.61-17.71-5-17.78-17.48-.08-12.33,4.49-18,17.09-18.64C61.59,91.81,66.53,97.4,66.61,109.9Z"/><path class="cls-1" d="M121,156c0,11.46-3.92,17.12-15.74,18.22-12.23,1.14-16.76-4.47-16.76-16.26,0-11.46,3.92-17.12,15.75-18.21C116.43,138.58,121,144.18,121,156Z"/><path class="cls-1" d="M122,156.33c0,11.49-3.93,17.17-15.79,18.28-12.26,1.14-16.8-4.48-16.8-16.31,0-11.49,3.92-17.17,15.78-18.28C117.4,138.88,122,144.51,122,156.33Z"/><path class="cls-1" d="M121,107.76c0,11.6-4,17.37-16.06,18-12.31.62-16.61-5.13-16.61-16.92,0-11.6,4-17.37,16.06-18C116.65,90.23,121,96,121,107.76Z"/><path class="cls-1" d="M122,108c0,11.64-4,17.43-16.1,18.05-12.35.63-16.66-5.15-16.66-17,0-11.63,4-17.43,16.1-18C117.64,90.37,122,96.14,122,108Z"/><path class="cls-1" d="M172.65,152.76c-.06,10.84-3.48,16.53-14.87,17.65C146,171.56,142,165.77,142.05,154.6c.06-10.84,3.47-16.54,14.86-17.65C168.74,135.8,172.71,141.58,172.65,152.76Z"/><path class="cls-1" d="M173.77,153.09c-.07,10.87-3.48,16.59-14.91,17.71C147,172,143,166.15,143.09,155c.06-10.87,3.48-16.59,14.9-17.71C169.86,136.08,173.83,141.89,173.77,153.09Z"/><path class="cls-1" d="M172.91,106c-.06,11-3.51,16.8-15.16,17.44-11.91.65-15.65-5.26-15.59-16.43.06-11,3.51-16.79,15.16-17.43C169.23,88.88,173,94.78,172.91,106Z"/><path class="cls-1" d="M174,106.14c-.07,11-3.52,16.85-15.2,17.49-12,.66-15.7-5.27-15.63-16.47.06-11,3.51-16.85,15.2-17.49C170.35,89,174.1,94.94,174,106.14Z"/><path class="cls-1" d="M221.9,104.25c-.12,10.4-3.1,16.25-14.34,16.91-11.55.68-14.77-5.36-14.66-16,.12-10.4,3.1-16.26,14.34-16.92C218.78,87.61,222,93.64,221.9,104.25Z"/><path class="cls-1" d="M223.14,104.43c-.11,10.42-3.1,16.3-14.37,17-11.58.69-14.81-5.38-14.69-16,.12-10.43,3.1-16.3,14.37-17C220,87.73,223.26,93.79,223.14,104.43Z"/><path class="cls-1" d="M221.4,149.72c-.11,10.28-3.08,16-14.06,17.12-11.47,1.17-14.91-4.77-14.8-15.38.11-10.28,3.07-16,14.06-17.12C218.07,133.17,221.52,139.11,221.4,149.72Z"/><path class="cls-1" d="M222.64,150c-.12,10.3-3.08,16-14.1,17.17-11.5,1.18-14.95-4.79-14.83-15.42.11-10.31,3.08-16,14.1-17.17C219.3,133.44,222.76,139.4,222.64,150Z"/><path class="cls-1" d="M43.2,41.12c0-1.86.68-2.73,2.6-2.71s2.6.87,2.61,2.73-.68,2.72-2.6,2.71S43.21,43,43.2,41.12Z"/><path class="cls-1" d="M44,41.1c0-1.87.69-2.73,2.61-2.72s2.61.88,2.62,2.74-.68,2.73-2.61,2.72S44,43,44,41.1Z"/><path class="cls-1" d="M133.85,41.31c0-1.69.56-2.58,2.36-2.57s2.35.89,2.35,2.59-.56,2.58-2.36,2.57S133.84,43,133.85,41.31Z"/><path class="cls-1" d="M134.88,41.3c0-1.7.56-2.6,2.37-2.59s2.36.9,2.36,2.6-.56,2.59-2.37,2.58S134.88,43,134.88,41.3Z"/><line class="cls-1" x1="223.93" y1="75.2" x2="225.18" y2="75.29"/><line class="cls-1" x1="162.99" y1="76.26" x2="164.1" y2="76.35"/><line class="cls-1" x1="92.09" y1="1.32" x2="93.01" y2="1.17"/><line class="cls-1" x1="86.17" y1="1.42" x2="87.08" y2="1.27"/><line class="cls-1" x1="80.24" y1="9.32" x2="81.12" y2="9.19"/><line class="cls-1" x1="80.22" y1="9.32" x2="81.1" y2="9.19"/><line class="cls-1" x1="79.55" y1="10.2" x2="80.43" y2="10.08"/><line class="cls-1" x1="78.74" y1="11.06" x2="79.62" y2="10.94"/><line class="cls-1" x1="71.61" y1="10.04" x2="72.47" y2="9.92"/><line class="cls-1" x1="70.93" y1="9.12" x2="71.79" y2="9"/><line class="cls-1" x1="67.87" y1="4.99" x2="68.72" y2="4.85"/><line class="cls-1" x1="15.58" y1="78.81" x2="16.26" y2="78.92"/><line class="cls-1" x1="15.54" y1="78.81" x2="16.22" y2="78.92"/><line class="cls-1" x1="15.56" y1="80.48" x2="16.24" y2="80.6"/><line class="cls-1" x1="15.55" y1="81.81" x2="16.24" y2="81.93"/><line class="cls-1" x1="15.59" y1="83.14" x2="16.27" y2="83.26"/><line class="cls-1" x1="16.73" y1="184.05" x2="17.42" y2="184.52"/><line class="cls-1" x1="30.04" y1="196.36" x2="30.76" y2="196.87"/><line class="cls-1" x1="222.75" y1="180.74" x2="223.99" y2="181.15"/><line class="cls-1" x1="233.3" y1="168.06" x2="234.57" y2="168.43"/><line class="cls-1" x1="234.3" y1="87.1" x2="235.58" y2="87.23"/><line class="cls-1" x1="103.55" y1="16.57" x2="104.5" y2="16.47"/><line class="cls-1" x1="116.92" y1="26.54" x2="117.91" y2="26.47"/><line class="cls-1" x1="127.54" y1="40.18" x2="128.55" y2="40.16"/><line class="cls-1" x1="130.03" y1="44.1" x2="131.05" y2="44.09"/><line class="cls-1" x1="134.52" y1="49.77" x2="135.56" y2="49.78"/><line class="cls-1" x1="135.74" y1="53.24" x2="136.78" y2="53.26"/><line class="cls-1" x1="131.01" y1="58.42" x2="132.04" y2="58.46"/><line class="cls-1" x1="62.54" y1="58.89" x2="63.37" y2="58.93"/><line class="cls-1" x1="57.38" y1="53.54" x2="58.19" y2="53.56"/><line class="cls-1" x1="57.12" y1="15.79" x2="57.94" y2="15.68"/><line class="cls-1" x1="66.07" y1="159.39" x2="66.9" y2="159.77"/><line class="cls-1" x1="49.08" y1="178.23" x2="49.86" y2="178.68"/><line class="cls-1" x1="31.49" y1="161.54" x2="32.22" y2="161.94"/><line class="cls-1" x1="48.8" y1="142.61" x2="49.58" y2="142.94"/><line class="cls-1" x1="65.77" y1="109.68" x2="66.61" y2="109.9"/><line class="cls-1" x1="48.69" y1="128.26" x2="49.47" y2="128.54"/><line class="cls-1" x1="31" y1="110.9" x2="31.73" y2="111.12"/><line class="cls-1" x1="48.41" y1="92.24" x2="49.19" y2="92.4"/><line class="cls-1" x1="120.96" y1="155.97" x2="121.95" y2="156.33"/><line class="cls-1" x1="104.89" y1="174.22" x2="105.83" y2="174.64"/><line class="cls-1" x1="88.46" y1="158" x2="89.36" y2="158.37"/><line class="cls-1" x1="104.83" y1="139.67" x2="105.77" y2="139.98"/><line class="cls-1" x1="120.96" y1="107.76" x2="121.95" y2="107.96"/><line class="cls-1" x1="104.81" y1="125.75" x2="105.75" y2="126.01"/><line class="cls-1" x1="88.29" y1="108.9" x2="89.19" y2="109.11"/><line class="cls-1" x1="104.75" y1="90.84" x2="105.69" y2="90.98"/><line class="cls-1" x1="172.65" y1="152.76" x2="173.77" y2="153.09"/><line class="cls-1" x1="157.42" y1="170.44" x2="158.5" y2="170.83"/><line class="cls-1" x1="142.05" y1="154.66" x2="143.09" y2="155.01"/><line class="cls-1" x1="157.55" y1="136.9" x2="158.63" y2="137.19"/><line class="cls-1" x1="172.91" y1="105.95" x2="174.04" y2="106.14"/><line class="cls-1" x1="157.6" y1="123.39" x2="158.69" y2="123.64"/><line class="cls-1" x1="142.16" y1="107.02" x2="143.21" y2="107.22"/><line class="cls-1" x1="157.74" y1="89.51" x2="158.83" y2="89.65"/><line class="cls-1" x1="221.9" y1="104.25" x2="223.14" y2="104.43"/><line class="cls-1" x1="207.37" y1="121.17" x2="208.58" y2="121.4"/><line class="cls-1" x1="192.9" y1="105.26" x2="194.08" y2="105.44"/><line class="cls-1" x1="207.68" y1="88.27" x2="208.9" y2="88.4"/><line class="cls-1" x1="221.4" y1="149.72" x2="222.64" y2="150.04"/><line class="cls-1" x1="206.94" y1="166.87" x2="208.14" y2="167.25"/><line class="cls-1" x1="192.54" y1="151.52" x2="193.71" y2="151.85"/><line class="cls-1" x1="207.25" y1="134.29" x2="208.46" y2="134.57"/><line class="cls-1" x1="43.2" y1="41.12" x2="43.97" y2="41.1"/><line class="cls-1" x1="45.79" y1="38.41" x2="46.57" y2="38.38"/><line class="cls-1" x1="48.41" y1="41.14" x2="49.2" y2="41.12"/><line class="cls-1" x1="45.83" y1="43.85" x2="46.61" y2="43.84"/><line class="cls-1" x1="133.85" y1="41.31" x2="134.88" y2="41.3"/><line class="cls-1" x1="136.21" y1="38.74" x2="137.25" y2="38.71"/><line class="cls-1" x1="138.56" y1="41.33" x2="139.61" y2="41.31"/><line class="cls-1" x1="136.2" y1="43.9" x2="137.24" y2="43.89"/><path class="cls-1" d="M66.12,9.84l0,0c-5.72.34-13.66-2.63-13.6,6.51q.14,18.51.28,37L25,53.51c-5.43,0-5.83,3.53-5.78,8q.16,14.58.32,29.17c0,.11,0,.22,0,.32s0,.08,0,.12l1,90.05c0,3.61,1.57,5.11,5.21,4.84L63,183.18c3.76-.28,5.11-2,5.09-5.69v-.3c0-3.31,1.08-5,4.5-5.33s4.85,1.24,4.86,4.65v.3c0,3.55,1.42,5.18,5.07,4.9l85-6.39c3.51-.27,4.56-2,4.58-5.36v-.3c0-3,.86-4.62,4-5,3.32-.38,4.32,1.35,4.3,4.41v.28c0,3.19,1,4.91,4.45,4.65l31.2-2.35c3.27-.24,4.14-1.95,4.18-5l.87-80.4c0-3-.82-4.74-4.11-4.67l-31.5.66c-3.55.07-4.54,1.89-4.56,5.18v.28c0,3-.86,4.77-4.16,4.91s-4.25-1.64-4.23-4.7v-.29c0-3.3-1-5.09-4.57-5l-38.13.8,0-30.32a4.91,4.91,0,0,0-1.21-3.4c-1.54-1.8-3-3.65-4.42-5.56q-1.31-1.89-2.46-3.85C110.6,21.13,97.64,12.16,75.26,10h0q2.91-3.88,5.83-7.75C135.29-.93,155.3,23.49,156.8,75.72l60.09-1c8.2-.14,10.33,4.21,10.25,11.7q-.46,39.8-.92,79.58c-.09,7.57-2.26,11.81-10.41,12.46L26,193.49c-9.12.72-13-3-13.08-12.1l-1.17-99q0-1.31,0-2.61c0-.54,0-1.09,0-1.63h0c.92-38.83,13.65-59.66,51.37-72.39Z"/><path class="cls-1" d="M65.3,10l0,0c-5.71.35-13.62-2.63-13.56,6.49q.14,18.45.28,36.9l-27.74.11c-5.4,0-5.81,3.51-5.76,7.94q.16,14.55.32,29.09c0,.1,0,.21,0,.31V91l1,89.74c0,3.61,1.57,5.11,5.19,4.83l37.17-2.78c3.75-.28,5.1-2,5.08-5.68v-.3c0-3.29,1.08-4.95,4.48-5.31s4.84,1.24,4.85,4.64v.3c0,3.54,1.42,5.16,5.06,4.89l84.8-6.36c3.51-.26,4.55-2,4.57-5.34v-.3c0-3,.86-4.61,4-5s4.3,1.34,4.28,4.4V169c0,3.18,1,4.9,4.44,4.64l31.13-2.33c3.26-.25,4.13-1.94,4.17-5q.42-40.09.86-80.17c0-3-.83-4.73-4.11-4.66l-31.42.66c-3.53.07-4.53,1.88-4.55,5.16v.29c0,3-.86,4.75-4.15,4.88s-4.24-1.62-4.22-4.68v-.29c0-3.29-1-5.07-4.56-5l-38,.8q0-15.12,0-30.23a4.86,4.86,0,0,0-1.2-3.39c-1.54-1.8-3-3.64-4.41-5.55-.87-1.25-1.68-2.52-2.45-3.83-11.23-19.12-24.15-28-46.47-30.17h0l5.82-7.73c54-3.2,74,21.13,75.49,73.21l59.94-1c8.18-.14,10.31,4.19,10.23,11.66l-.9,79.34c-.09,7.56-2.26,11.78-10.39,12.42L25.31,193c-9.09.72-12.94-3-13-12.06L11.1,82.3c0-.87,0-1.73,0-2.6,0-.54,0-1.09,0-1.63h0C12,39.36,24.7,18.61,62.29,5.93,63.3,7.27,64.3,8.62,65.3,10Z"/><path class="cls-1" d="M38.86,41.39c0,1.82.7,2.65,2.57,2.67S44,43.23,44,41.4s-.7-2.66-2.57-2.67S38.84,39.55,38.86,41.39Z"/><path class="cls-1" d="M38.12,41.4c0,1.82.7,2.65,2.56,2.67s2.56-.83,2.55-2.65-.7-2.65-2.57-2.67S38.1,39.58,38.12,41.4Z"/><path class="cls-1" d="M128.05,41.56c0,1.67.55,2.54,2.32,2.54s2.32-.86,2.32-2.53S132.14,39,130.37,39,128.05,39.89,128.05,41.56Z"/><path class="cls-1" d="M127.06,41.58c0,1.66.55,2.52,2.31,2.53s2.32-.86,2.32-2.52-.55-2.53-2.31-2.54S127.06,39.91,127.06,41.58Z"/><line class="cls-1" x1="66.12" y1="9.84" x2="65.3" y2="9.96"/><line class="cls-1" x1="66.14" y1="9.87" x2="65.32" y2="9.99"/><line class="cls-1" x1="57.12" y1="11.11" x2="56.33" y2="11.23"/><line class="cls-1" x1="56.42" y1="11.27" x2="55.62" y2="11.39"/><line class="cls-1" x1="52.54" y1="16.38" x2="51.76" y2="16.48"/><line class="cls-1" x1="52.82" y1="53.4" x2="52.04" y2="53.38"/><line class="cls-1" x1="25" y1="53.51" x2="24.3" y2="53.49"/><line class="cls-1" x1="19.22" y1="61.49" x2="18.54" y2="61.43"/><line class="cls-1" x1="19.54" y1="90.66" x2="18.86" y2="90.52"/><line class="cls-1" x1="19.55" y1="90.98" x2="18.87" y2="90.83"/><line class="cls-1" x1="19.54" y1="91.1" x2="18.87" y2="90.95"/><line class="cls-1" x1="20.53" y1="181.15" x2="19.86" y2="180.69"/><line class="cls-1" x1="25.74" y1="185.99" x2="25.05" y2="185.52"/><line class="cls-1" x1="63.02" y1="183.18" x2="62.22" y2="182.74"/><line class="cls-1" x1="68.11" y1="177.49" x2="67.3" y2="177.06"/><line class="cls-1" x1="68.11" y1="177.19" x2="67.3" y2="176.76"/><line class="cls-1" x1="69.34" y1="173.65" x2="68.52" y2="173.24"/><line class="cls-1" x1="76.22" y1="173.17" x2="75.38" y2="172.76"/><line class="cls-1" x1="77.47" y1="176.51" x2="76.63" y2="176.09"/><line class="cls-1" x1="77.47" y1="176.81" x2="76.63" y2="176.39"/><line class="cls-1" x1="82.54" y1="181.71" x2="81.69" y2="181.28"/><line class="cls-1" x1="167.57" y1="175.32" x2="166.49" y2="174.92"/><line class="cls-1" x1="172.15" y1="169.96" x2="171.06" y2="169.58"/><line class="cls-1" x1="172.15" y1="169.66" x2="171.06" y2="169.28"/><line class="cls-1" x1="172.7" y1="167.26" x2="171.61" y2="166.88"/><line class="cls-1" x1="177.46" y1="164.75" x2="176.36" y2="164.38"/><line class="cls-1" x1="180.47" y1="169.08" x2="179.36" y2="168.71"/><line class="cls-1" x1="180.47" y1="169.36" x2="179.36" y2="168.98"/><line class="cls-1" x1="184.92" y1="174.01" x2="183.8" y2="173.62"/><line class="cls-1" x1="216.12" y1="171.66" x2="214.93" y2="171.29"/><line class="cls-1" x1="220.3" y1="166.67" x2="219.1" y2="166.32"/><line class="cls-1" x1="221.17" y1="86.27" x2="219.96" y2="86.15"/><line class="cls-1" x1="217.06" y1="81.6" x2="215.85" y2="81.49"/><line class="cls-1" x1="185.56" y1="82.26" x2="184.43" y2="82.15"/><line class="cls-1" x1="181" y1="87.44" x2="179.88" y2="87.31"/><line class="cls-1" x1="181" y1="87.72" x2="179.88" y2="87.6"/><line class="cls-1" x1="179.87" y1="91.04" x2="178.75" y2="90.9"/><line class="cls-1" x1="173.71" y1="91.2" x2="172.61" y2="91.07"/><line class="cls-1" x1="172.61" y1="87.93" x2="171.51" y2="87.8"/><line class="cls-1" x1="172.61" y1="87.64" x2="171.51" y2="87.51"/><line class="cls-1" x1="168.04" y1="82.63" x2="166.95" y2="82.52"/><line class="cls-1" x1="129.91" y1="83.43" x2="128.92" y2="83.32"/><line class="cls-1" x1="129.94" y1="53.11" x2="128.94" y2="53.09"/><line class="cls-1" x1="128.73" y1="49.71" x2="127.74" y2="49.7"/><line class="cls-1" x1="124.31" y1="44.15" x2="123.33" y2="44.15"/><line class="cls-1" x1="121.85" y1="40.3" x2="120.88" y2="40.32"/><line class="cls-1" x1="111.38" y1="26.91" x2="110.44" y2="26.98"/><line class="cls-1" x1="75.26" y1="10.03" x2="74.41" y2="10.15"/><line class="cls-1" x1="75.26" y1="10.02" x2="74.41" y2="10.15"/><line class="cls-1" x1="75.28" y1="10.03" x2="74.43" y2="10.15"/><line class="cls-1" x1="81.11" y1="2.28" x2="80.25" y2="2.42"/><line class="cls-1" x1="86.93" y1="2.17" x2="86.05" y2="2.32"/><line class="cls-1" x1="156.8" y1="75.72" x2="155.74" y2="75.63"/><line class="cls-1" x1="216.89" y1="74.7" x2="215.68" y2="74.62"/><line class="cls-1" x1="227.14" y1="86.4" x2="225.91" y2="86.28"/><line class="cls-1" x1="226.22" y1="165.98" x2="225.01" y2="165.62"/><line class="cls-1" x1="215.81" y1="178.44" x2="214.62" y2="178.04"/><line class="cls-1" x1="26" y1="193.49" x2="25.31" y2="193"/><line class="cls-1" x1="12.92" y1="181.39" x2="12.27" y2="180.94"/><line class="cls-1" x1="11.75" y1="82.42" x2="11.1" y2="82.3"/><line class="cls-1" x1="11.72" y1="81.12" x2="11.06" y2="81"/><line class="cls-1" x1="11.72" y1="79.81" x2="11.06" y2="79.7"/><line class="cls-1" x1="11.7" y1="78.18" x2="11.05" y2="78.07"/><line class="cls-1" x1="11.74" y1="78.18" x2="11.09" y2="78.07"/><line class="cls-1" x1="63.11" y1="5.79" x2="62.29" y2="5.93"/><line class="cls-1" x1="38.86" y1="41.39" x2="38.12" y2="41.4"/><line class="cls-1" x1="41.45" y1="44.06" x2="40.7" y2="44.07"/><line class="cls-1" x1="43.98" y1="41.4" x2="43.23" y2="41.42"/><line class="cls-1" x1="41.4" y1="38.73" x2="40.65" y2="38.75"/><line class="cls-1" x1="128.05" y1="41.56" x2="127.06" y2="41.58"/><line class="cls-1" x1="130.37" y1="44.1" x2="129.38" y2="44.11"/><line class="cls-1" x1="132.69" y1="41.57" x2="131.69" y2="41.59"/><line class="cls-1" x1="130.38" y1="39.03" x2="129.38" y2="39.05"/></g><g id="scocca_color" data-name="scocca color"><path class="cls-1" d="M20.09,79.49l150.2-2.66C167.51-23.28,22.6-20.53,20.09,79.49Z"/><path class="cls-1" d="M20.81,79.61l150.63-2.68C168.67-23.47,23.33-20.71,20.81,79.61Z"/><polygon class="cls-1" points="75.47 47.43 75.41 36.46 87.43 36.52 87.47 47.42 75.47 47.43"/><polygon class="cls-1" points="76.36 47.43 76.31 36.42 88.35 36.49 88.39 47.43 76.36 47.43"/><path class="cls-1" d="M48.29,41.26c0-1.9.7-2.79,2.66-2.77s2.65.89,2.66,2.79-.69,2.78-2.65,2.77S48.31,43.15,48.29,41.26Z"/><path class="cls-1" d="M49.1,41.24c0-1.9.7-2.8,2.66-2.78s2.67.9,2.68,2.8-.7,2.8-2.66,2.78S49.12,43.14,49.1,41.24Z"/><path class="cls-1" d="M140.67,41.45c0-1.73.56-2.64,2.4-2.63s2.4.92,2.39,2.64-.56,2.64-2.4,2.64S140.66,43.18,140.67,41.45Z"/><path class="cls-1" d="M141.74,41.43c0-1.73.57-2.64,2.42-2.64s2.4.92,2.4,2.66-.57,2.64-2.42,2.64S141.74,43.17,141.74,41.43Z"/><line class="cls-1" x1="20.09" y1="79.49" x2="20.81" y2="79.61"/><line class="cls-1" x1="170.29" y1="76.83" x2="171.44" y2="76.93"/><line class="cls-1" x1="98.16" y1="0.3" x2="99.13" y2="0.14"/><line class="cls-1" x1="75.47" y1="47.43" x2="76.36" y2="47.43"/><line class="cls-1" x1="75.41" y1="36.46" x2="76.31" y2="36.42"/><line class="cls-1" x1="87.43" y1="36.53" x2="88.35" y2="36.49"/><line class="cls-1" x1="87.47" y1="47.42" x2="88.39" y2="47.43"/><line class="cls-1" x1="48.29" y1="41.26" x2="49.1" y2="41.24"/><line class="cls-1" x1="50.94" y1="38.49" x2="51.75" y2="38.46"/><line class="cls-1" x1="53.61" y1="41.28" x2="54.44" y2="41.26"/><line class="cls-1" x1="50.98" y1="44.05" x2="51.8" y2="44.04"/><line class="cls-1" x1="140.67" y1="41.45" x2="141.74" y2="41.43"/><line class="cls-1" x1="143.07" y1="38.82" x2="144.16" y2="38.79"/><line class="cls-1" x1="145.46" y1="41.46" x2="146.56" y2="41.45"/><line class="cls-1" x1="143.06" y1="44.1" x2="144.15" y2="44.09"/><path class="cls-1" d="M.14,76.22,138,74C135.06-17.81,2.29-15.59.14,76.22Z"/><path class="cls-1" d="M.72,76.32l138.22-2.19C136-18,2.88-15.74.72,76.32Z"/><path class="cls-1" d="M25.78,41.78c0-1.73.65-2.52,2.42-2.5s2.42.79,2.44,2.51-.65,2.52-2.42,2.5S25.8,43.5,25.78,41.78Z"/><path class="cls-1" d="M26.44,41.77c0-1.74.65-2.53,2.42-2.51s2.43.79,2.45,2.52-.65,2.52-2.43,2.51S26.45,43.49,26.44,41.77Z"/><path class="cls-1" d="M110.52,41.93c0-1.59.54-2.4,2.21-2.39s2.21.81,2.21,2.4-.54,2.39-2.21,2.39S110.52,43.51,110.52,41.93Z"/><path class="cls-1" d="M111.4,41.91c0-1.59.55-2.4,2.22-2.39s2.22.81,2.22,2.41-.54,2.4-2.22,2.39S111.41,43.5,111.4,41.91Z"/><line class="cls-1" x1="0.14" y1="76.22" x2="0.72" y2="76.32"/><line class="cls-1" x1="137.99" y1="74.04" x2="138.94" y2="74.13"/><line class="cls-1" x1="71.32" y1="4.75" x2="72.1" y2="4.62"/><line class="cls-1" x1="25.78" y1="41.78" x2="26.44" y2="41.77"/><line class="cls-1" x1="28.19" y1="39.28" x2="28.85" y2="39.26"/><line class="cls-1" x1="30.64" y1="41.79" x2="31.31" y2="41.78"/><line class="cls-1" x1="28.24" y1="44.29" x2="28.9" y2="44.29"/><line class="cls-1" x1="110.52" y1="41.93" x2="111.4" y2="41.91"/><line class="cls-1" x1="112.73" y1="39.54" x2="113.62" y2="39.52"/><line class="cls-1" x1="114.94" y1="41.94" x2="115.84" y2="41.93"/><line class="cls-1" x1="112.74" y1="44.33" x2="113.63" y2="44.32"/><path class="cls-1" d="M205.9,73.92l-58.76,1C145.61,24,125.9.47,73.24,3.61q-2.83,3.75-5.68,7.51h0L66.9,12c-2.52,3.35-5.13,3.15-7.6-.15L55.71,7C19.12,19.35,6.65,39.48,5.78,77.2h0c0,.53,0,1.06,0,1.58,0,.85,0,1.69,0,2.53l1.2,96c.11,8.82,3.87,12.44,12.73,11.76L205,174.83c7.93-.61,10.1-4.7,10.18-12.1q.39-38.72.8-77.42C216,78,213.89,73.79,205.9,73.92Z"/><path class="cls-1" d="M207,74l-58.89,1c-1.53-51-21.27-74.65-74.09-71.5L68.37,11h0l-.64.85c-2.53,3.36-5.15,3.15-7.62-.15L56.48,6.9C19.77,19.26,7.28,39.46,6.4,77.3h0c0,.53,0,1.06,0,1.59,0,.85,0,1.69,0,2.54Q7,129.57,7.6,177.7c.11,8.84,3.89,12.48,12.77,11.79L206.1,175.21c8-.62,10.12-4.72,10.2-12.14l.81-77.65C217.19,78.08,215.05,73.87,207,74Z"/><path class="cls-1" d="M94.8,48l21.55,0c3.44,0,4.54,1.66,4.54,4.92s-1.11,4.91-4.54,4.93L94.83,58c-3.5,0-4.68-1.63-4.69-5S91.31,48,94.8,48Z"/><path class="cls-1" d="M95.68,48l21.6,0c3.45,0,4.56,1.67,4.55,4.94s-1.11,4.93-4.55,4.95L95.7,58c-3.51,0-4.69-1.64-4.7-5S92.17,48,95.68,48Z"/><path class="cls-1" d="M54.67,40.7c0-3.46,1.25-5.11,4.83-5.08L78,35.73c3.53,0,4.75,1.66,4.76,5.06l0,6.6c0,3.39-1.2,5-4.72,5l-18.48.06c-3.59,0-4.88-1.62-4.9-5.09Z"/><path class="cls-1" d="M55.43,40.68c0-3.47,1.26-5.12,4.85-5.1l18.57.11c3.55,0,4.77,1.68,4.79,5.08l0,6.62c0,3.4-1.2,5-4.73,5.06l-18.54.06c-3.59,0-4.89-1.62-4.91-5.1C55.46,45.16,55.45,42.92,55.43,40.68Z"/><path class="cls-1" d="M32.14,41.39c0-1.78.67-2.59,2.49-2.58s2.49.82,2.5,2.59S36.47,44,34.65,44,32.16,43.16,32.14,41.39Z"/><path class="cls-1" d="M32.84,41.37c0-1.78.67-2.6,2.49-2.58s2.5.82,2.52,2.6S37.18,44,35.35,44,32.86,43.15,32.84,41.37Z"/><path class="cls-1" d="M119.05,41.56c0-1.63.55-2.46,2.27-2.46s2.26.85,2.26,2.47S123,44,121.31,44,119.05,43.19,119.05,41.56Z"/><path class="cls-1" d="M120,41.54c0-1.63.55-2.47,2.27-2.46s2.27.85,2.27,2.48S124,44,122.26,44,120,43.17,120,41.54Z"/><line class="cls-1" x1="205.9" y1="73.92" x2="207.04" y2="74"/><line class="cls-1" x1="147.14" y1="74.89" x2="148.15" y2="74.97"/><line class="cls-1" x1="78.91" y1="3.5" x2="79.74" y2="3.36"/><line class="cls-1" x1="73.24" y1="3.61" x2="74.06" y2="3.47"/><line class="cls-1" x1="67.56" y1="11.12" x2="68.37" y2="11.01"/><line class="cls-1" x1="67.54" y1="11.12" x2="68.34" y2="11.01"/><line class="cls-1" x1="66.9" y1="11.97" x2="67.7" y2="11.86"/><line class="cls-1" x1="66.13" y1="12.78" x2="66.92" y2="12.67"/><line class="cls-1" x1="59.3" y1="11.82" x2="60.08" y2="11.71"/><line class="cls-1" x1="58.65" y1="10.95" x2="59.42" y2="10.83"/><line class="cls-1" x1="55.71" y1="7.03" x2="56.48" y2="6.9"/><line class="cls-1" x1="5.78" y1="77.2" x2="6.4" y2="77.3"/><line class="cls-1" x1="5.74" y1="77.2" x2="6.36" y2="77.3"/><line class="cls-1" x1="5.76" y1="78.78" x2="6.38" y2="78.89"/><line class="cls-1" x1="5.76" y1="80.05" x2="6.38" y2="80.16"/><line class="cls-1" x1="5.79" y1="81.31" x2="6.41" y2="81.43"/><line class="cls-1" x1="6.99" y1="177.27" x2="7.6" y2="177.7"/><line class="cls-1" x1="19.72" y1="189.03" x2="20.37" y2="189.49"/><line class="cls-1" x1="204.97" y1="174.83" x2="206.1" y2="175.21"/><line class="cls-1" x1="215.15" y1="162.73" x2="216.3" y2="163.07"/><line class="cls-1" x1="215.95" y1="85.31" x2="217.11" y2="85.42"/><line class="cls-1" x1="94.8" y1="48.03" x2="95.68" y2="48.03"/><line class="cls-1" x1="116.35" y1="48.01" x2="117.28" y2="48.01"/><line class="cls-1" x1="120.89" y1="52.92" x2="121.83" y2="52.94"/><line class="cls-1" x1="116.35" y1="57.86" x2="117.28" y2="57.9"/><line class="cls-1" x1="94.83" y1="58" x2="95.7" y2="58.04"/><line class="cls-1" x1="90.14" y1="53.03" x2="91" y2="53.05"/><line class="cls-1" x1="54.67" y1="40.7" x2="55.43" y2="40.68"/><line class="cls-1" x1="59.5" y1="35.62" x2="60.28" y2="35.58"/><line class="cls-1" x1="78.03" y1="35.73" x2="78.85" y2="35.69"/><line class="cls-1" x1="82.79" y1="40.79" x2="83.64" y2="40.77"/><line class="cls-1" x1="82.82" y1="47.39" x2="83.66" y2="47.39"/><line class="cls-1" x1="78.1" y1="52.43" x2="78.93" y2="52.45"/><line class="cls-1" x1="59.62" y1="52.49" x2="60.39" y2="52.51"/><line class="cls-1" x1="54.72" y1="47.4" x2="55.48" y2="47.41"/><line class="cls-1" x1="32.14" y1="41.39" x2="32.84" y2="41.37"/><line class="cls-1" x1="34.62" y1="38.81" x2="35.32" y2="38.79"/><line class="cls-1" x1="37.13" y1="41.4" x2="37.85" y2="41.39"/><line class="cls-1" x1="34.66" y1="43.98" x2="35.37" y2="43.97"/><line class="cls-1" x1="119.05" y1="41.56" x2="119.99" y2="41.54"/><line class="cls-1" x1="121.32" y1="39.1" x2="122.26" y2="39.08"/><line class="cls-1" x1="123.58" y1="41.57" x2="124.53" y2="41.56"/><line class="cls-1" x1="121.32" y1="44.03" x2="122.26" y2="44.02"/></g><g id="tasti"><path class="cls-1" d="M134.31,110.28c0-12.26-4.38-18.35-17.24-17.65-12.6.68-16.65,6.77-16.66,18.81,0,12.25,4.38,18.35,17.24,17.65C130.25,128.41,134.3,122.33,134.31,110.28Z"/><path class="cls-1" d="M136.48,110.72c0-12.33-4.4-18.48-17.34-17.77-12.69.69-16.74,6.83-16.76,19,0,12.32,4.4,18.47,17.34,17.76C132.41,129,136.46,122.83,136.48,110.72Z"/><line class="cls-1" x1="134.31" y1="110.28" x2="136.48" y2="110.72"/><line class="cls-1" x1="117.52" y1="92.61" x2="119.59" y2="92.93"/><line class="cls-1" x1="100.41" y1="111.52" x2="102.38" y2="111.97"/><line class="cls-1" x1="117.53" y1="129.1" x2="119.6" y2="129.67"/><path class="cls-1" d="M238.1,153.83c.14-11-3.34-17.27-15.28-16-11.4,1.24-14.37,7.24-14.5,17.87-.14,11,3.34,17.28,15.27,16C235,170.46,238,164.46,238.1,153.83Z"/><path class="cls-1" d="M240.8,154.52c.14-11-3.35-17.39-15.36-16.07-11.47,1.26-14.43,7.31-14.57,18-.15,11,3.34,17.4,15.35,16.08C237.69,171.25,240.66,165.2,240.8,154.52Z"/><line class="cls-1" x1="238.1" y1="153.83" x2="240.8" y2="154.52"/><line class="cls-1" x1="223.53" y1="137.8" x2="226.16" y2="138.39"/><line class="cls-1" x1="208.31" y1="155.78" x2="210.86" y2="156.5"/><line class="cls-1" x1="223.15" y1="171.74" x2="225.77" y2="172.55"/><path class="cls-1" d="M134.24,160.63c0-12.26-4.64-18.19-17.4-16.94-12.31,1.21-16.3,7.18-16.32,19.07,0,12.26,4.64,18.19,17.4,16.93C130.23,178.48,134.22,172.52,134.24,160.63Z"/><path class="cls-1" d="M136.4,161.41c0-12.34-4.66-18.32-17.5-17-12.4,1.23-16.4,7.24-16.42,19.2,0,12.33,4.66,18.32,17.5,17C132.38,179.38,136.38,173.37,136.4,161.41Z"/><line class="cls-1" x1="134.24" y1="160.63" x2="136.4" y2="161.41"/><line class="cls-1" x1="117.54" y1="143.64" x2="119.6" y2="144.31"/><line class="cls-1" x1="100.52" y1="162.83" x2="102.48" y2="163.64"/><line class="cls-1" x1="117.55" y1="179.73" x2="119.61" y2="180.64"/><path class="cls-1" d="M77,112.37c-.06-13-5.14-18.88-18.46-18.21-13.11.65-17.79,6.66-17.73,19.46.06,13,5.14,18.88,18.46,18.21C72.38,131.17,77.06,125.17,77,112.37Z"/><path class="cls-1" d="M78.84,112.84c-.06-13.07-5.17-19-18.58-18.34-13.21.67-17.9,6.72-17.84,19.6.06,13.07,5.16,19,18.57,18.34C74.2,131.77,78.9,125.72,78.84,112.84Z"/><line class="cls-1" x1="77" y1="112.37" x2="78.84" y2="112.84"/><line class="cls-1" x1="58.96" y1="94.14" x2="60.69" y2="94.49"/><line class="cls-1" x1="40.81" y1="113.69" x2="42.42" y2="114.18"/><line class="cls-1" x1="59.21" y1="131.83" x2="60.93" y2="132.44"/><path class="cls-1" d="M77.25,164.35c-.06-13-5.4-18.69-18.61-17.45-12.83,1.2-17.43,7.1-17.37,19.73.06,13,5.39,18.69,18.61,17.45C72.71,182.88,77.31,177,77.25,164.35Z"/><path class="cls-1" d="M79.08,165.19c-.06-13.08-5.43-18.83-18.74-17.57-12.91,1.22-17.53,7.17-17.47,19.88.06,13.07,5.42,18.82,18.73,17.56C74.51,183.84,79.13,177.89,79.08,165.19Z"/><line class="cls-1" x1="77.25" y1="164.35" x2="79.08" y2="165.19"/><line class="cls-1" x1="59.31" y1="146.85" x2="61.03" y2="147.57"/><line class="cls-1" x1="41.27" y1="166.71" x2="42.87" y2="167.57"/><line class="cls-1" x1="59.56" y1="184.11" x2="61.28" y2="185.09"/><path class="cls-1" d="M188.11,108.31c.08-11.59-3.71-17.84-16.14-17.12-12.12.71-15.6,6.85-15.69,18.22-.08,11.58,3.71,17.84,16.14,17.11C184.54,125.81,188,119.68,188.11,108.31Z"/><path class="cls-1" d="M190.57,108.72c.09-11.65-3.71-18-16.22-17.22-12.2.71-15.69,6.9-15.78,18.33-.08,11.66,3.71,18,16.22,17.23C187,126.34,190.48,120.16,190.57,108.72Z"/><line class="cls-1" x1="188.11" y1="108.31" x2="190.57" y2="108.72"/><line class="cls-1" x1="172.44" y1="91.17" x2="174.83" y2="91.48"/><line class="cls-1" x1="156.28" y1="109.47" x2="158.57" y2="109.9"/><line class="cls-1" x1="172.25" y1="126.53" x2="174.62" y2="127.07"/><path class="cls-1" d="M187.75,157.13c.09-11.6-3.95-17.72-16.29-16.45-11.84,1.23-15.29,7.22-15.37,18.45-.08,11.59,4,17.72,16.29,16.44C184.22,174.35,187.67,168.35,187.75,157.13Z"/><path class="cls-1" d="M190.2,157.86c.09-11.66-4-17.84-16.38-16.54-11.91,1.24-15.37,7.28-15.45,18.57-.09,11.66,4,17.84,16.38,16.54C186.66,175.19,190.11,169.15,190.2,157.86Z"/><line class="cls-1" x1="187.75" y1="157.13" x2="190.2" y2="157.86"/><line class="cls-1" x1="172.17" y1="140.63" x2="174.54" y2="141.26"/><line class="cls-1" x1="156.09" y1="159.2" x2="158.37" y2="159.96"/><line class="cls-1" x1="171.97" y1="175.61" x2="174.33" y2="176.47"/><path class="cls-1" d="M238.71,106.46c.14-11-3.1-17.37-15.13-16.61-11.68.73-14.67,6.89-14.8,17.64-.14,11,3.09,17.38,15.12,16.62C235.58,123.37,238.57,117.22,238.71,106.46Z"/><path class="cls-1" d="M241.42,106.85c.15-11-3.09-17.49-15.2-16.72-11.75.74-14.74,7-14.88,17.76-.14,11,3.1,17.5,15.2,16.72C238.29,123.87,241.28,117.66,241.42,106.85Z"/><line class="cls-1" x1="238.71" y1="106.46" x2="241.42" y2="106.85"/><line class="cls-1" x1="224.07" y1="89.82" x2="226.72" y2="90.11"/><line class="cls-1" x1="208.78" y1="107.56" x2="211.34" y2="107.96"/><line class="cls-1" x1="223.69" y1="124.12" x2="226.32" y2="124.63"/></g><g id="knob"><path class="cls-2" d="M95.92,41.94c0-5.74-2-8.56-8-8.6s-8.06,2.78-8,8.54,2,8.55,8,8.59S95.93,47.69,95.92,41.94Z"/><line class="cls-2" x1="95.92" y1="41.94" x2="102.24" y2="41.83"/><path class="cls-2" d="M102.24,41.83c0-5.85-2.06-8.75-8.19-8.79s-8.2,2.86-8.19,8.73,2.06,8.75,8.18,8.79S102.25,47.7,102.24,41.83Z"/><line class="cls-2" x1="102.24" y1="41.83" x2="101.69" y2="41.82"/><path class="cls-2" d="M101.69,41.82c0-5.22-1.83-7.8-7.29-7.84s-7.33,2.55-7.32,7.79,1.84,7.81,7.3,7.84S101.71,47.06,101.69,41.82Z"/><line class="cls-2" x1="95.92" y1="41.94" x2="79.85" y2="41.89"/><line class="cls-2" x1="87.89" y1="33.34" x2="87.95" y2="50.47"/><path class="cls-2" d="M99.21,41.88c0-5.8-2-8.65-8.11-8.7S83,36,83,41.82s2,8.66,8.11,8.7S99.22,47.7,99.21,41.88Z"/><line class="cls-2" x1="87.89" y1="33.34" x2="94.06" y2="33.04"/><line class="cls-2" x1="79.85" y1="41.89" x2="85.86" y2="41.79"/><line class="cls-2" x1="87.95" y1="50.47" x2="94.11" y2="50.56"/><line class="cls-2" x1="101.69" y1="41.82" x2="87.08" y2="41.78"/><line class="cls-2" x1="94.4" y1="33.98" x2="94.44" y2="49.61"/><path class="cls-2" d="M102,41.83c0-5.55-2-8.28-7.74-8.32s-7.77,2.71-7.76,8.26,2,8.28,7.74,8.32S102,47.38,102,41.83Z"/><line class="cls-2" x1="101.59" y1="38.43" x2="101.12" y2="38.79"/><line class="cls-2" x1="99.84" y1="35.64" x2="99.56" y2="36.3"/><line class="cls-2" x1="98.63" y1="34.56" x2="98.47" y2="35.34"/><line class="cls-2" x1="97.25" y1="33.75" x2="97.24" y2="34.61"/><line class="cls-2" x1="95.69" y1="33.22" x2="95.85" y2="34.14"/><line class="cls-2" x1="94.06" y1="33.04" x2="94.4" y2="33.98"/><line class="cls-2" x1="92.43" y1="33.2" x2="92.94" y2="34.12"/><line class="cls-2" x1="90.87" y1="33.7" x2="91.55" y2="34.57"/><line class="cls-2" x1="89.47" y1="34.5" x2="90.31" y2="35.29"/><line class="cls-2" x1="88.25" y1="35.57" x2="89.22" y2="36.24"/><line class="cls-2" x1="86.5" y1="38.36" x2="87.65" y2="38.73"/><line class="cls-2" x1="86.01" y1="40.04" x2="87.22" y2="40.23"/><line class="cls-2" x1="85.86" y1="41.79" x2="87.08" y2="41.78"/><line class="cls-2" x1="86.03" y1="43.53" x2="87.23" y2="43.34"/><line class="cls-2" x1="86.52" y1="45.21" x2="87.67" y2="44.84"/><line class="cls-2" x1="87.28" y1="46.7" x2="88.35" y2="46.17"/><line class="cls-2" x1="88.3" y1="48.01" x2="89.26" y2="47.33"/><line class="cls-2" x1="89.52" y1="49.08" x2="90.35" y2="48.29"/><line class="cls-2" x1="90.92" y1="49.88" x2="91.59" y2="49"/><line class="cls-2" x1="92.49" y1="50.39" x2="92.99" y2="49.46"/><line class="cls-2" x1="94.11" y1="50.56" x2="94.44" y2="49.61"/><line class="cls-2" x1="95.73" y1="50.39" x2="95.89" y2="49.46"/><line class="cls-2" x1="97.29" y1="49.87" x2="97.27" y2="49"/><line class="cls-2" x1="98.67" y1="49.07" x2="98.5" y2="48.28"/><line class="cls-2" x1="99.87" y1="48" x2="99.58" y2="47.33"/><line class="cls-2" x1="101.61" y1="45.22" x2="101.13" y2="44.85"/><line class="cls-2" x1="102.08" y1="43.56" x2="101.55" y2="43.37"/></g></g></svg>