<svg id="Livello_1" data-name="Livello 1" xmlns="http://www.w3.org/2000/svg" viewBox="0 0 200.3 222.19"><defs><style>.cls-1{fill:none;stroke:#000;stroke-miterlimit:10;stroke-width:0.43px;}</style></defs><title>Risorsa 3</title><g id="Livello_2" data-name="Livello 2"><g id="Predefinito"><path class="cls-1" d="M169.8,53.55,140.23,68.08c-.17-31.33.59-76.76-41.11-57.07q-1.68,4.74-3.37,9.46h0c-.12.35-.25.71-.38,1.06-.9,2.47-3.19,4.47-4.63,1.58-.74-1.49-1.49-3-2.23-4.46C61.24,45.29,57.84,73.54,58,108.53h0v1.71c0,.91,0,1.82.07,2.73q1.23,49.91,2.48,99.8c.14,5.47,2.39,11.2,8,7.08l99-72.66c5.1-3.74,4.84-8.31,5-13.64q.94-35.73,1.91-71.46C174.49,58.07,175.6,50.69,169.8,53.55Z" transform="translate(0.07 0.05)"/><path class="cls-1" d="M171.87,53.82,142.42,68.4c-.14-31.25.76-76.91-40.88-57.12l-3.37,9.47h0c-.13.35-.26.71-.38,1.06-.88,2.46-3.17,4.45-4.6,1.58L91,18.93C63.75,45.66,60.35,74,60.44,109h0v1.72c0,.91,0,1.82.07,2.73q1.18,50,2.38,100c.12,5.45,2.37,11.2,8,7.07l98.61-72.89c5.09-3.76,4.83-8.33,5-13.66l2-71.55C176.54,58.37,177.67,51,171.87,53.82Z" transform="translate(0.07 0.05)"/><path class="cls-1" d="M109,22.9c7.33,4.57,10.33,10.82,13.06,18.41.41,1.11.84,2.22,1.32,3.3.73,1.55,1.51,3.06,2.36,4.55,2.15,3.91,2.86,7.1-1.89,9.23l-38,17.09c-3,1.38-3-1.83-3.06-4.13q-.27-19.5-.53-39Z" transform="translate(0.07 0.05)"/><path class="cls-1" d="M111.35,23.17c7.31,4.59,10.28,10.85,13,18.43.4,1.12.83,2.22,1.31,3.31q1.08,2.33,2.34,4.55c2.14,3.92,2.86,7.1-1.89,9.25L88.25,75.86c-3,1.39-3-1.84-3-4.13Q85,52.2,84.71,32.67Z" transform="translate(0.07 0.05)"/><path class="cls-1" d="M88.67,173c.09,8.1-1.42,14.53-6.87,20.92-6.51,7.63-12.82.63-12.92-8-.09-8.11,1.42-14.53,6.87-20.92C82.26,157.31,88.57,164.32,88.67,173Z" transform="translate(0.07 0.05)"/><path class="cls-1" d="M91,173.52c.09,8.1-1.43,14.54-6.84,20.94-6.46,7.64-12.79.64-12.88-8-.08-8.1,1.43-14.54,6.85-20.94C84.55,157.87,90.87,164.87,91,173.52Z" transform="translate(0.07 0.05)"/><path class="cls-1" d="M88.12,125.22c.09,8.34-1.09,14.94-7.3,21.29-7.66,7.83-12.86-1.4-13-10.23-.1-8.35,1.09-14.94,7.3-21.29C82.81,107.16,88,116.39,88.12,125.22Z" transform="translate(0.07 0.05)"/><path class="cls-1" d="M90.47,125.68c.08,8.34-1.11,14.94-7.28,21.32-7.6,7.84-12.83-1.41-12.92-10.22-.09-8.34,1.1-14.94,7.28-21.32C85.15,107.61,90.37,116.87,90.47,125.68Z" transform="translate(0.07 0.05)"/><path class="cls-1" d="M118.27,153.32c0,7.35-1.27,13.35-6.11,19.29-5.79,7.11-11.18-.44-11.16-8.05,0-7.35,1.26-13.36,6.1-19.3C112.89,138.16,118.28,145.7,118.27,153.32Z" transform="translate(0.07 0.05)"/><path class="cls-1" d="M120.46,153.79c0,7.34-1.27,13.36-6.08,19.31-5.74,7.1-11.15-.44-11.12-8,0-7.34,1.27-13.36,6.08-19.31C115.08,138.65,120.49,146.19,120.46,153.79Z" transform="translate(0.07 0.05)"/><path class="cls-1" d="M118.37,108.28c0,7.56-1,13.71-6.48,19.64-6.8,7.31-11.17-2.24-11.16-10,0-7.56,1-13.71,6.48-19.63C114,91,118.38,100.5,118.37,108.28Z" transform="translate(0.07 0.05)"/><path class="cls-1" d="M120.61,108.68c0,7.55-1,13.72-6.45,19.66-6.76,7.33-11.15-2.24-11.12-10,0-7.55,1-13.71,6.45-19.66C116.24,91.35,120.64,100.92,120.61,108.68Z" transform="translate(0.07 0.05)"/><path class="cls-1" d="M144.3,136c-.09,6.73-1.15,12.36-5.48,17.91-5.18,6.62-9.82-1.26-9.72-8s1.14-12.37,5.48-17.92C139.75,121.39,144.39,129.26,144.3,136Z" transform="translate(0.07 0.05)"/><path class="cls-1" d="M146.4,136.43c-.1,6.73-1.15,12.37-5.46,17.93-5.13,6.61-9.78-1.27-9.68-8s1.15-12.36,5.46-17.93C141.85,121.82,146.51,129.7,146.4,136.43Z" transform="translate(0.07 0.05)"/><path class="cls-1" d="M144.9,93.42c-.1,6.91-.87,12.67-5.8,18.22-6.09,6.86-9.78-2.84-9.69-9.77s.87-12.67,5.8-18.22C141.3,76.79,145,86.5,144.9,93.42Z" transform="translate(0.07 0.05)"/><path class="cls-1" d="M147,93.77c-.1,6.91-.88,12.68-5.77,18.24-6,6.87-9.76-2.85-9.65-9.75s.88-12.68,5.77-18.24C143.43,77.15,147.15,86.87,147,93.77Z" transform="translate(0.07 0.05)"/><path class="cls-1" d="M168.36,80.28c-.16,6.37-.81,11.78-5.25,17-5.5,6.47-8.61-3.3-8.46-9.52s.81-11.78,5.24-17C165.39,64.29,168.51,74.06,168.36,80.28Z" transform="translate(0.07 0.05)"/><path class="cls-1" d="M170.41,80.6c-.16,6.36-.81,11.78-5.22,17-5.46,6.48-8.59-3.31-8.43-9.51.16-6.36.82-11.78,5.23-17C167.45,64.61,170.57,74.39,170.41,80.6Z" transform="translate(0.07 0.05)"/><path class="cls-1" d="M167.37,120.69c-.15,6.2-1.05,11.5-5,16.71-4.66,6.2-8.66-1.89-8.51-7.93.15-6.21,1-11.51,5-16.71C163.51,106.55,167.52,114.63,167.37,120.69Z" transform="translate(0.07 0.05)"/><path class="cls-1" d="M169.39,121.05c-.16,6.21-1.06,11.51-4.95,16.73-4.63,6.2-8.64-1.89-8.49-7.92.16-6.2,1.07-11.51,5-16.72C165.53,106.93,169.54,115,169.39,121.05Z" transform="translate(0.07 0.05)"/><path class="cls-1" d="M74.21,62.13c0-1.31.05-2.34,1.18-3.26,1.43-1.15,1.92.6,2,2s0,2.34-1.19,3.26C74.73,65.25,74.23,63.49,74.21,62.13Z" transform="translate(0.07 0.05)"/><path class="cls-1" d="M76.67,62.5c0-1.31,0-2.34,1.18-3.27,1.42-1.15,1.92.61,1.94,2s-.05,2.34-1.18,3.26C77.19,65.62,76.69,63.85,76.67,62.5Z" transform="translate(0.07 0.05)"/><path class="cls-1" d="M125.4,41a3.29,3.29,0,0,1,1-2.86c1.19-1.06,1.53.71,1.52,1.83a3.35,3.35,0,0,1-1,2.86C125.73,43.92,125.39,42.15,125.4,41Z" transform="translate(0.07 0.05)"/><path class="cls-1" d="M127.68,41.32a3.35,3.35,0,0,1,1-2.86c1.18-1.06,1.52.71,1.51,1.83a3.32,3.32,0,0,1-1,2.87C128,44.22,127.67,42.44,127.68,41.32Z" transform="translate(0.07 0.05)"/><line class="cls-1" x1="169.87" y1="53.6" x2="171.94" y2="53.87"/><line class="cls-1" x1="140.3" y1="68.13" x2="142.49" y2="68.45"/><line class="cls-1" x1="102.57" y1="9.72" x2="104.98" y2="9.98"/><line class="cls-1" x1="99.19" y1="11.06" x2="101.61" y2="11.33"/><line class="cls-1" x1="95.82" y1="20.52" x2="98.24" y2="20.8"/><line class="cls-1" x1="95.8" y1="20.53" x2="98.23" y2="20.81"/><line class="cls-1" x1="95.42" y1="21.59" x2="97.85" y2="21.87"/><line class="cls-1" x1="94.96" y1="22.65" x2="97.38" y2="22.94"/><line class="cls-1" x1="90.81" y1="23.16" x2="93.25" y2="23.45"/><line class="cls-1" x1="90.41" y1="22.35" x2="92.85" y2="22.64"/><line class="cls-1" x1="88.58" y1="18.7" x2="91.03" y2="18.98"/><line class="cls-1" x1="58.03" y1="108.58" x2="60.51" y2="109.04"/><line class="cls-1" x1="58.01" y1="108.59" x2="60.48" y2="109.05"/><line class="cls-1" x1="58.05" y1="110.3" x2="60.52" y2="110.77"/><line class="cls-1" x1="58.07" y1="111.67" x2="60.54" y2="112.14"/><line class="cls-1" x1="58.12" y1="113.03" x2="60.59" y2="113.5"/><line class="cls-1" x1="60.6" y1="212.83" x2="62.97" y2="213.47"/><line class="cls-1" x1="68.6" y1="219.91" x2="70.93" y2="220.54"/><line class="cls-1" x1="167.55" y1="147.25" x2="169.54" y2="147.65"/><line class="cls-1" x1="172.54" y1="133.61" x2="174.52" y2="133.99"/><line class="cls-1" x1="174.45" y1="62.15" x2="176.5" y2="62.44"/><line class="cls-1" x1="109.05" y1="22.95" x2="111.42" y2="23.22"/><line class="cls-1" x1="116.42" y1="30.13" x2="118.75" y2="30.41"/><line class="cls-1" x1="122.11" y1="41.36" x2="124.41" y2="41.65"/><line class="cls-1" x1="123.43" y1="44.66" x2="125.72" y2="44.96"/><line class="cls-1" x1="125.79" y1="49.21" x2="128.06" y2="49.51"/><line class="cls-1" x1="126.42" y1="52.31" x2="128.68" y2="52.62"/><line class="cls-1" x1="123.9" y1="58.44" x2="126.17" y2="58.76"/><line class="cls-1" x1="85.91" y1="75.53" x2="88.32" y2="75.91"/><line class="cls-1" x1="82.85" y1="71.4" x2="85.27" y2="71.78"/><line class="cls-1" x1="82.32" y1="32.41" x2="84.78" y2="32.72"/><line class="cls-1" x1="88.74" y1="173.04" x2="91.03" y2="173.57"/><line class="cls-1" x1="79.32" y1="196.32" x2="81.63" y2="196.91"/><line class="cls-1" x1="68.96" y1="186.18" x2="71.32" y2="186.77"/><line class="cls-1" x1="78.78" y1="162.36" x2="81.13" y2="162.89"/><line class="cls-1" x1="88.19" y1="125.27" x2="90.54" y2="125.73"/><line class="cls-1" x1="78.56" y1="148.44" x2="80.92" y2="148.95"/><line class="cls-1" x1="67.93" y1="136.61" x2="70.34" y2="137.12"/><line class="cls-1" x1="77.99" y1="112.92" x2="80.39" y2="113.37"/><line class="cls-1" x1="118.34" y1="153.37" x2="120.53" y2="153.84"/><line class="cls-1" x1="109.9" y1="174.9" x2="112.11" y2="175.41"/><line class="cls-1" x1="101.07" y1="164.84" x2="103.33" y2="165.35"/><line class="cls-1" x1="109.85" y1="142.85" x2="112.09" y2="143.32"/><line class="cls-1" x1="118.44" y1="108.33" x2="120.68" y2="108.73"/><line class="cls-1" x1="109.82" y1="129.74" x2="112.08" y2="130.19"/><line class="cls-1" x1="100.8" y1="118.2" x2="103.11" y2="118.64"/><line class="cls-1" x1="109.77" y1="96.34" x2="112.06" y2="96.73"/><line class="cls-1" x1="144.37" y1="136.07" x2="146.47" y2="136.48"/><line class="cls-1" x1="136.75" y1="156.08" x2="138.86" y2="156.53"/><line class="cls-1" x1="129.16" y1="146.17" x2="131.32" y2="146.62"/><line class="cls-1" x1="137.07" y1="125.77" x2="139.22" y2="126.17"/><line class="cls-1" x1="144.97" y1="93.47" x2="147.11" y2="93.82"/><line class="cls-1" x1="137.2" y1="113.38" x2="139.36" y2="113.77"/><line class="cls-1" x1="129.48" y1="102.14" x2="131.68" y2="102.53"/><line class="cls-1" x1="137.54" y1="81.85" x2="139.73" y2="82.2"/><line class="cls-1" x1="168.43" y1="80.33" x2="170.48" y2="80.65"/><line class="cls-1" x1="161.38" y1="98.93" x2="163.44" y2="99.27"/><line class="cls-1" x1="154.72" y1="88.01" x2="156.83" y2="88.35"/><line class="cls-1" x1="162.01" y1="69.08" x2="164.11" y2="69.39"/><line class="cls-1" x1="167.44" y1="120.74" x2="169.46" y2="121.1"/><line class="cls-1" x1="160.51" y1="139.43" x2="162.54" y2="139.83"/><line class="cls-1" x1="153.95" y1="129.7" x2="156.02" y2="130.1"/><line class="cls-1" x1="161.12" y1="110.67" x2="163.18" y2="111.03"/><line class="cls-1" x1="74.28" y1="62.18" x2="76.74" y2="62.55"/><line class="cls-1" x1="75.8" y1="58.72" x2="78.26" y2="59.08"/><line class="cls-1" x1="77.41" y1="60.89" x2="79.86" y2="61.26"/><line class="cls-1" x1="75.89" y1="64.34" x2="78.35" y2="64.72"/><line class="cls-1" x1="125.47" y1="41.08" x2="127.75" y2="41.37"/><line class="cls-1" x1="126.73" y1="38.03" x2="129.01" y2="38.32"/><line class="cls-1" x1="127.96" y1="40.06" x2="130.23" y2="40.35"/><line class="cls-1" x1="126.7" y1="43.1" x2="128.98" y2="43.4"/><path class="cls-1" d="M76.53,20.67h0c-4.6,2.14-8.34,3.78-8.22,9.9l.75,38.61-17.23,7.3c-5,2.1-3.61,6-3.49,9.9l.87,30.18V117l2.58,89.3c.07,2.22,1,4.47,3.26,2.87L76.92,194c2.69-1.86,2.88-4.1,2.84-7v-.28a8.11,8.11,0,0,1,1.8-5.78c1.72-2.1,3.46-.17,3.49,2.17v.28c0,2,.65,4.53,2.89,3l44.9-31.1c2.34-1.62,2.3-3.63,2.32-6V149a7.77,7.77,0,0,1,1.47-5c1.39-1.82,2.68.34,2.66,2.18v.25c0,1.65.17,4.28,2.16,2.91q7.49-5.21,15-10.39c2.1-1.46,2-3.28,2-5.42l1.47-71.89c0-1.63.42-4.52-1.91-3.39l-15.51,7.6c-2.74,1.35-2.3,3.5-2.33,5.88V72c0,1.94-.14,3.57-1.61,5.12-1.83,1.93-2.66-1.06-2.64-3v-.27c0-1.86.26-4.91-2.31-3.65L113.51,80V50.51a5.79,5.79,0,0,0-.66-3.08c-.88-1.48-1.68-3-2.44-4.52A34.46,34.46,0,0,1,109,39.63c-5.12-13.57-9.62-24.1-27-20.74h0q1.71-4.68,3.4-9.35c42-19.13,42,24.93,42.37,56.72L158,52c5.86-2.77,4.84,4.43,4.75,8.51l-1.54,70.94c-.11,5.32.14,9.86-5,13.51L55.36,216.27c-5.73,4-8-1.51-8.21-7.08q-1.53-49.44-3.08-98.89c0-.9-.06-1.8-.08-2.7l-.05-1.69h0c-.32-34.84,3.12-62.69,30.68-88.84Z" transform="translate(0.07 0.05)"/><path class="cls-1" d="M74.15,20.39h0c-4.6,2.13-8.36,3.75-8.23,9.88q.39,19.28.79,38.54l-17.3,7.27c-5,2.09-3.61,5.94-3.49,9.89l.9,30.13v.45l2.67,89.15c.07,2.23,1,4.46,3.27,2.87L74.7,193.49c2.7-1.86,2.9-4.09,2.85-7v-.29a8.07,8.07,0,0,1,1.81-5.76c1.74-2.1,3.47-.18,3.5,2.17v.28c0,2,.65,4.52,2.9,3l45.05-31c2.34-1.61,2.29-3.61,2.32-6v-.27a7.64,7.64,0,0,1,1.47-5c1.4-1.82,2.69.34,2.67,2.19V146c0,1.65.18,4.27,2.17,2.9l15-10.35c2.11-1.46,2-3.28,2-5.42l1.41-71.79c0-1.64.4-4.52-1.93-3.39l-15.56,7.56C137.61,66.85,138,69,138,71.38v.26c0,1.94-.14,3.57-1.61,5.12-1.84,1.93-2.68-1.06-2.66-3v-.27c0-1.87.26-4.9-2.32-3.65l-20.16,9.79V50.15a5.65,5.65,0,0,0-.67-3.07q-1.3-2.22-2.45-4.51a34.46,34.46,0,0,1-1.37-3.28C101.61,25.7,97,15.23,79.65,18.56h0l3.4-9.34c42-19,42.18,24.8,42.59,56.67L156,51.7c5.87-2.76,4.87,4.41,4.78,8.5l-1.47,70.85c-.11,5.32.14,9.85-5,13.49L53.09,215.65c-5.75,4-8.06-1.49-8.24-7.08l-3.18-98.73q-.06-1.35-.09-2.7v-1.69h0c-.35-34.82,3.09-62.6,30.7-88.66C72.89,18,73.52,19.19,74.15,20.39Z" transform="translate(0.07 0.05)"/><path class="cls-1" d="M60.28,60.21c0,1.37.51,3.08,2,2,1.17-.9,1.24-1.93,1.21-3.24s-.51-3.08-2-2C60.31,57.87,60.25,58.9,60.28,60.21Z" transform="translate(0.07 0.05)"/><path class="cls-1" d="M57.88,59.85c0,1.37.51,3.08,2,2,1.18-.89,1.24-1.92,1.21-3.23s-.51-3.08-2-2C57.91,57.51,57.85,58.54,57.88,59.85Z" transform="translate(0.07 0.05)"/><path class="cls-1" d="M112.47,39.52c0,1.13.32,2.86,1.55,1.83a3.17,3.17,0,0,0,1-2.84c0-1.14-.33-2.87-1.55-1.84A3.18,3.18,0,0,0,112.47,39.52Z" transform="translate(0.07 0.05)"/><path class="cls-1" d="M110.23,39.23c0,1.14.33,2.86,1.56,1.84a3.17,3.17,0,0,0,1-2.84c0-1.14-.33-2.87-1.56-1.84A3.12,3.12,0,0,0,110.23,39.23Z" transform="translate(0.07 0.05)"/><line class="cls-1" x1="76.6" y1="20.72" x2="74.22" y2="20.44"/><line class="cls-1" x1="76.62" y1="20.75" x2="74.23" y2="20.47"/><line class="cls-1" x1="71.13" y1="24.04" x2="68.74" y2="23.75"/><line class="cls-1" x1="70.7" y1="24.37" x2="68.3" y2="24.08"/><line class="cls-1" x1="68.4" y1="30.65" x2="66" y2="30.35"/><line class="cls-1" x1="69.15" y1="69.26" x2="66.79" y2="68.89"/><line class="cls-1" x1="51.9" y1="76.53" x2="49.48" y2="76.13"/><line class="cls-1" x1="48.41" y1="86.43" x2="45.99" y2="86.02"/><line class="cls-1" x1="49.28" y1="116.61" x2="46.89" y2="116.15"/><line class="cls-1" x1="49.29" y1="116.94" x2="46.91" y2="116.47"/><line class="cls-1" x1="49.29" y1="117.06" x2="46.91" y2="116.6"/><line class="cls-1" x1="51.87" y1="206.36" x2="49.58" y2="205.75"/><line class="cls-1" x1="55.13" y1="209.23" x2="52.85" y2="208.62"/><line class="cls-1" x1="76.99" y1="194.09" x2="74.77" y2="193.54"/><line class="cls-1" x1="79.83" y1="187.09" x2="77.62" y2="186.55"/><line class="cls-1" x1="79.83" y1="186.81" x2="77.61" y2="186.26"/><line class="cls-1" x1="80.48" y1="183.09" x2="78.27" y2="182.55"/><line class="cls-1" x1="84.38" y1="180.46" x2="82.18" y2="179.93"/><line class="cls-1" x1="85.12" y1="183.2" x2="82.92" y2="182.67"/><line class="cls-1" x1="85.12" y1="183.48" x2="82.93" y2="182.95"/><line class="cls-1" x1="88.01" y1="186.46" x2="85.83" y2="185.93"/><line class="cls-1" x1="132.91" y1="155.36" x2="130.88" y2="154.92"/><line class="cls-1" x1="135.23" y1="149.31" x2="133.2" y2="148.89"/><line class="cls-1" x1="135.23" y1="149.04" x2="133.2" y2="148.62"/><line class="cls-1" x1="135.52" y1="146.75" x2="133.49" y2="146.33"/><line class="cls-1" x1="137.9" y1="143.21" x2="135.87" y2="142.8"/><line class="cls-1" x1="139.36" y1="146.25" x2="137.34" y2="145.84"/><line class="cls-1" x1="139.35" y1="146.5" x2="137.33" y2="146.09"/><line class="cls-1" x1="141.51" y1="149.41" x2="139.5" y2="148.99"/><line class="cls-1" x1="156.5" y1="139.02" x2="154.54" y2="138.64"/><line class="cls-1" x1="158.52" y1="133.6" x2="156.57" y2="133.22"/><line class="cls-1" x1="159.99" y1="61.71" x2="157.98" y2="61.43"/><line class="cls-1" x1="158.08" y1="58.32" x2="156.05" y2="58.04"/><line class="cls-1" x1="142.57" y1="65.9" x2="140.49" y2="65.6"/><line class="cls-1" x1="140.24" y1="71.78" x2="138.15" y2="71.47"/><line class="cls-1" x1="140.23" y1="72.05" x2="138.14" y2="71.73"/><line class="cls-1" x1="139.64" y1="75.4" x2="137.55" y2="75.08"/><line class="cls-1" x1="136.52" y1="76.99" x2="134.42" y2="76.67"/><line class="cls-1" x1="135.98" y1="74.18" x2="133.87" y2="73.86"/><line class="cls-1" x1="135.98" y1="73.91" x2="133.87" y2="73.59"/><line class="cls-1" x1="133.67" y1="70.26" x2="131.55" y2="69.94"/><line class="cls-1" x1="113.58" y1="80.08" x2="111.39" y2="79.73"/><line class="cls-1" x1="113.58" y1="50.56" x2="111.36" y2="50.25"/><line class="cls-1" x1="112.92" y1="47.48" x2="110.69" y2="47.18"/><line class="cls-1" x1="110.48" y1="42.96" x2="108.24" y2="42.67"/><line class="cls-1" x1="109.11" y1="39.68" x2="106.87" y2="39.39"/><line class="cls-1" x1="103.22" y1="28.53" x2="100.94" y2="28.25"/><line class="cls-1" x1="82.1" y1="18.94" x2="79.74" y2="18.66"/><line class="cls-1" x1="82.1" y1="18.94" x2="79.74" y2="18.66"/><line class="cls-1" x1="82.11" y1="18.93" x2="79.75" y2="18.66"/><line class="cls-1" x1="85.51" y1="9.58" x2="83.15" y2="9.32"/><line class="cls-1" x1="88.95" y1="8.26" x2="86.6" y2="8.01"/><line class="cls-1" x1="127.88" y1="66.3" x2="125.74" y2="65.99"/><line class="cls-1" x1="158.09" y1="52.02" x2="156.05" y2="51.75"/><line class="cls-1" x1="162.84" y1="60.53" x2="160.83" y2="60.25"/><line class="cls-1" x1="161.3" y1="131.47" x2="159.36" y2="131.1"/><line class="cls-1" x1="156.27" y1="144.98" x2="154.32" y2="144.59"/><line class="cls-1" x1="55.43" y1="216.32" x2="53.16" y2="215.7"/><line class="cls-1" x1="47.22" y1="209.24" x2="44.92" y2="208.62"/><line class="cls-1" x1="44.14" y1="110.35" x2="41.74" y2="109.89"/><line class="cls-1" x1="44.09" y1="109.01" x2="41.68" y2="108.55"/><line class="cls-1" x1="44.06" y1="107.65" x2="41.65" y2="107.19"/><line class="cls-1" x1="44.01" y1="105.96" x2="41.6" y2="105.5"/><line class="cls-1" x1="44.03" y1="105.94" x2="41.62" y2="105.49"/><line class="cls-1" x1="74.71" y1="17.1" x2="72.32" y2="16.83"/><line class="cls-1" x1="60.35" y1="60.26" x2="57.95" y2="59.9"/><line class="cls-1" x1="62.01" y1="62.41" x2="59.62" y2="62.05"/><line class="cls-1" x1="63.54" y1="59" x2="61.15" y2="58.64"/><line class="cls-1" x1="61.89" y1="56.84" x2="59.49" y2="56.48"/><line class="cls-1" x1="112.54" y1="39.57" x2="110.3" y2="39.28"/><line class="cls-1" x1="113.81" y1="41.57" x2="111.59" y2="41.28"/><line class="cls-1" x1="115.08" y1="38.56" x2="112.86" y2="38.28"/><line class="cls-1" x1="113.81" y1="36.55" x2="111.58" y2="36.27"/></g><g id="scocca_color" data-name="scocca color"><path class="cls-1" d="M74.28,111.55l80.39-41.39c0-35.6-18-82.94-50.57-49C78,48.28,74.4,76.76,74.28,111.55Z" transform="translate(0.07 0.05)"/><path class="cls-1" d="M76.82,112l80.09-41.54c.07-35.51-18.1-83-50.38-49C80.63,48.74,77,77.26,76.82,112Z" transform="translate(0.07 0.05)"/><polygon class="cls-1" points="105.89 64.41 105.85 53.35 112.48 50.57 112.48 61.48 105.89 64.41"/><polygon class="cls-1" points="108.35 64.77 108.33 53.7 114.93 50.9 114.92 61.83 108.35 64.77"/><path class="cls-1" d="M90.44,64.85a3.7,3.7,0,0,1,1.16-3.28c1.37-1.19,1.89.62,1.9,2a3.68,3.68,0,0,1-1.16,3.28C91,68,90.46,66.2,90.44,64.85Z" transform="translate(0.07 0.05)"/><path class="cls-1" d="M93,65.23a3.7,3.7,0,0,1,1.15-3.29c1.36-1.19,1.88.62,1.89,2a3.75,3.75,0,0,1-1.15,3.29C93.5,68.39,93,66.57,93,65.23Z" transform="translate(0.07 0.05)"/><path class="cls-1" d="M140.43,43.23a3.5,3.5,0,0,1,.95-2.89c1.14-1.08,1.49.73,1.48,1.83a3.48,3.48,0,0,1-1,2.89C140.77,46.14,140.42,44.33,140.43,43.23Z" transform="translate(0.07 0.05)"/><path class="cls-1" d="M142.76,43.53a3.57,3.57,0,0,1,1-2.89c1.13-1.09,1.49.73,1.47,1.83a3.53,3.53,0,0,1-.94,2.89C143.11,46.44,142.75,44.63,142.76,43.53Z" transform="translate(0.07 0.05)"/><line class="cls-1" x1="74.35" y1="111.6" x2="76.89" y2="112.08"/><line class="cls-1" x1="154.74" y1="70.21" x2="156.98" y2="70.54"/><line class="cls-1" x1="118.43" y1="11.44" x2="120.89" y2="11.7"/><line class="cls-1" x1="105.89" y1="64.41" x2="108.35" y2="64.78"/><line class="cls-1" x1="105.85" y1="53.35" x2="108.33" y2="53.7"/><line class="cls-1" x1="112.48" y1="50.57" x2="114.93" y2="50.9"/><line class="cls-1" x1="112.48" y1="61.48" x2="114.92" y2="61.83"/><line class="cls-1" x1="90.51" y1="64.9" x2="93.04" y2="65.28"/><line class="cls-1" x1="92.02" y1="61.39" x2="94.54" y2="61.77"/><line class="cls-1" x1="93.57" y1="63.59" x2="96.08" y2="63.96"/><line class="cls-1" x1="92.07" y1="67.08" x2="94.59" y2="67.47"/><line class="cls-1" x1="140.5" y1="43.28" x2="142.83" y2="43.58"/><line class="cls-1" x1="141.75" y1="40.19" x2="144.08" y2="40.48"/><line class="cls-1" x1="142.93" y1="42.23" x2="145.25" y2="42.53"/><line class="cls-1" x1="141.69" y1="45.31" x2="144.01" y2="45.61"/><path class="cls-1" d="M.28,97.63,88.76,60.47c-1.17-37.84-16.82-80.29-55.46-50C2.25,34.73-.65,62.11.28,97.63Z" transform="translate(0.07 0.05)"/><path class="cls-1" d="M2.54,98.06,90.79,60.77C89.66,23,74-19.65,35.46,10.74,4.55,35.14,1.65,62.56,2.54,98.06Z" transform="translate(0.07 0.05)"/><path class="cls-1" d="M16.82,53.79c-.06-1.33,0-2.34,1.28-3.15,1.56-1,2,.56,2.07,2s0,2.34-1.28,3.15C17.33,56.75,16.88,55.2,16.82,53.79Z" transform="translate(0.07 0.05)"/><path class="cls-1" d="M19.07,54.13c-.06-1.33,0-2.34,1.27-3.16,1.56-1,2,.56,2.07,2s0,2.34-1.28,3.16C19.58,57.1,19.13,55.54,19.07,54.13Z" transform="translate(0.07 0.05)"/><path class="cls-1" d="M71.92,34.39c0-1.12,0-2,1-2.78,1.34-.94,1.63.66,1.65,1.83s0,2-1,2.79C72.23,37.16,71.94,35.57,71.92,34.39Z" transform="translate(0.07 0.05)"/><path class="cls-1" d="M74,34.67c0-1.13,0-2,1-2.79,1.33-.94,1.61.66,1.64,1.83s0,2-1,2.79C74.34,37.44,74.05,35.83,74,34.67Z" transform="translate(0.07 0.05)"/><line class="cls-1" x1="0.35" y1="97.68" x2="2.61" y2="98.11"/><line class="cls-1" x1="88.83" y1="60.52" x2="90.86" y2="60.82"/><line class="cls-1" x1="46.35" y1="3.7" x2="48.56" y2="3.94"/><line class="cls-1" x1="16.89" y1="53.84" x2="19.14" y2="54.18"/><line class="cls-1" x1="18.46" y1="50.55" x2="20.7" y2="50.88"/><line class="cls-1" x1="20.24" y1="52.67" x2="22.48" y2="53"/><line class="cls-1" x1="18.68" y1="55.95" x2="20.92" y2="56.29"/><line class="cls-1" x1="71.99" y1="34.44" x2="74.1" y2="34.72"/><line class="cls-1" x1="73.3" y1="31.53" x2="75.4" y2="31.79"/><line class="cls-1" x1="74.69" y1="33.5" x2="76.79" y2="33.77"/><line class="cls-1" x1="73.39" y1="36.41" x2="75.49" y2="36.68"/><path class="cls-1" d="M139.19,49.46,108,63.34c-.69-32.5-2-74.42-44.31-56.18Q62,11.77,60.25,16.35h0l-.38,1c-1,2.58-3.24,4.38-4.84,1.49L52.6,14.51c-28,25.37-31.49,52.58-30.86,87.2h0a13.25,13.25,0,0,0,.07,1.67c0,.89.06,1.77.11,2.66l4,97.42c.24,5.72,2.63,11,8.52,7.08L138.15,141.3c5.28-3.51,5-8,5.1-13.3q.48-35.06.95-70.1C144.26,53.73,145.13,46.81,139.19,49.46Z" transform="translate(0.07 0.05)"/><path class="cls-1" d="M141.18,49.72l-31.1,13.92c-.65-32.42-1.8-74.56-44.11-56.23l-3.42,9.21h0l-.39,1c-.95,2.57-3.23,4.38-4.82,1.49l-2.41-4.37C27,40.23,23.48,67.51,24.07,102.15h0l.06,1.68c0,.88.06,1.77.11,2.66l3.9,97.57c.23,5.71,2.61,11,8.49,7.08l103.45-69.46c5.26-3.54,5-8,5.09-13.33q.51-35.1,1-70.19C146.22,54,147.11,47.07,141.18,49.72Z" transform="translate(0.07 0.05)"/><path class="cls-1" d="M77.65,48.7l12.72-4.9c6.14-2.37,5.78,7.55.1,9.86L77.81,58.81C71.56,61.35,71.73,51,77.65,48.7Z" transform="translate(0.07 0.05)"/><path class="cls-1" d="M79.86,49l12.68-4.91c6.14-2.38,5.76,7.56.09,9.88L80,59.14C73.76,61.69,73.94,51.3,79.86,49Z" transform="translate(0.07 0.05)"/><path class="cls-1" d="M52.73,50.52c-.08-2.83-.43-5.27,3-6.48l11.58-4.15c3.09-1.11,3,1.88,3,4.15l.13,6.78c0,2.7.38,5-2.8,6.29L56.13,61.63c-3.1,1.23-3.15-1.75-3.22-4.1Z" transform="translate(0.07 0.05)"/><path class="cls-1" d="M55,50.85c-.08-2.83-.44-5.28,3-6.5l11.54-4.16c3.09-1.12,3,1.89,3,4.15l.12,6.8c0,2.7.39,5-2.79,6.29L58.39,62c-3.1,1.23-3.13-1.76-3.19-4.11Z" transform="translate(0.07 0.05)"/><path class="cls-1" d="M38.17,56.72c-.05-1.32,0-2.34,1.24-3.19,1.52-1.06,2,.57,2,2s0,2.34-1.25,3.19C38.67,59.75,38.21,58.11,38.17,56.72Z" transform="translate(0.07 0.05)"/><path class="cls-1" d="M40.49,57.07c0-1.32,0-2.34,1.24-3.2,1.52-1.06,2,.58,2,2s0,2.34-1.24,3.2C41,60.1,40.54,58.46,40.49,57.07Z" transform="translate(0.07 0.05)"/><path class="cls-1" d="M91.87,36.71c0-1.12,0-2,1-2.81,1.28-1,1.59.68,1.6,1.84s0,2-1,2.81C92.19,39.54,91.89,37.87,91.87,36.71Z" transform="translate(0.07 0.05)"/><path class="cls-1" d="M94.05,37c0-1.12,0-2,1-2.81,1.28-1,1.59.68,1.6,1.83s0,2-1,2.82C94.36,39.82,94.05,38.15,94.05,37Z" transform="translate(0.07 0.05)"/><line class="cls-1" x1="139.26" y1="49.51" x2="141.25" y2="49.77"/><line class="cls-1" x1="108.06" y1="63.39" x2="110.15" y2="63.69"/><line class="cls-1" x1="67.29" y1="5.94" x2="69.57" y2="6.18"/><line class="cls-1" x1="63.75" y1="7.21" x2="66.04" y2="7.46"/><line class="cls-1" x1="60.32" y1="16.4" x2="62.62" y2="16.67"/><line class="cls-1" x1="60.31" y1="16.41" x2="62.61" y2="16.67"/><line class="cls-1" x1="59.93" y1="17.44" x2="62.22" y2="17.71"/><line class="cls-1" x1="59.45" y1="18.47" x2="61.74" y2="18.74"/><line class="cls-1" x1="55.09" y1="18.93" x2="57.4" y2="19.2"/><line class="cls-1" x1="54.65" y1="18.13" x2="56.96" y2="18.41"/><line class="cls-1" x1="52.67" y1="14.56" x2="54.99" y2="14.83"/><line class="cls-1" x1="21.81" y1="101.76" x2="24.14" y2="102.2"/><line class="cls-1" x1="21.78" y1="101.77" x2="24.12" y2="102.21"/><line class="cls-1" x1="21.85" y1="103.44" x2="24.18" y2="103.89"/><line class="cls-1" x1="21.89" y1="104.78" x2="24.23" y2="105.22"/><line class="cls-1" x1="21.96" y1="106.1" x2="24.29" y2="106.55"/><line class="cls-1" x1="25.95" y1="203.52" x2="28.19" y2="204.12"/><line class="cls-1" x1="34.47" y1="210.6" x2="36.68" y2="211.2"/><line class="cls-1" x1="138.22" y1="141.35" x2="140.13" y2="141.74"/><line class="cls-1" x1="143.32" y1="128.05" x2="145.22" y2="128.41"/><line class="cls-1" x1="144.27" y1="57.95" x2="146.23" y2="58.22"/><line class="cls-1" x1="77.72" y1="48.75" x2="79.93" y2="49.05"/><line class="cls-1" x1="90.44" y1="43.85" x2="92.61" y2="44.14"/><line class="cls-1" x1="93.11" y1="47.75" x2="95.27" y2="48.05"/><line class="cls-1" x1="90.54" y1="53.71" x2="92.7" y2="54.02"/><line class="cls-1" x1="77.88" y1="58.86" x2="80.08" y2="59.19"/><line class="cls-1" x1="75" y1="54.93" x2="77.21" y2="55.25"/><line class="cls-1" x1="52.8" y1="50.57" x2="55.09" y2="50.9"/><line class="cls-1" x1="55.75" y1="44.09" x2="58.04" y2="44.4"/><line class="cls-1" x1="67.33" y1="39.94" x2="69.58" y2="40.24"/><line class="cls-1" x1="70.34" y1="44.09" x2="72.58" y2="44.39"/><line class="cls-1" x1="70.47" y1="50.87" x2="72.7" y2="51.19"/><line class="cls-1" x1="67.67" y1="57.16" x2="69.91" y2="57.48"/><line class="cls-1" x1="56.2" y1="61.68" x2="58.46" y2="62.03"/><line class="cls-1" x1="52.98" y1="57.58" x2="55.27" y2="57.92"/><line class="cls-1" x1="38.24" y1="56.77" x2="40.56" y2="57.12"/><line class="cls-1" x1="39.79" y1="53.41" x2="42.11" y2="53.76"/><line class="cls-1" x1="41.51" y1="55.56" x2="43.83" y2="55.9"/><line class="cls-1" x1="39.97" y1="58.9" x2="42.29" y2="59.25"/><line class="cls-1" x1="91.94" y1="36.76" x2="94.12" y2="37.04"/><line class="cls-1" x1="93.24" y1="33.8" x2="95.41" y2="34.07"/><line class="cls-1" x1="94.57" y1="35.79" x2="96.73" y2="36.07"/><line class="cls-1" x1="93.28" y1="38.75" x2="95.45" y2="39.03"/></g><g id="tasti"><path class="cls-1" d="M148.27,113.49c.12-7.49-4.48-17.26-10.61-9.82-5,6.12-6.07,12.39-6.18,19.89s4.48,17.25,10.61,9.82C147.14,127.25,148.15,121,148.27,113.49Z" transform="translate(0.07 0.05)"/><path class="cls-1" d="M153,114.33c.13-7.44-4.5-17.23-10.52-9.78-5,6.15-6,12.44-6.14,19.92s4.5,17.23,10.52,9.78C151.81,128.1,152.83,121.81,153,114.33Z" transform="translate(0.07 0.05)"/><line class="cls-1" x1="148.34" y1="113.54" x2="153.04" y2="114.38"/><line class="cls-1" x1="140.32" y1="101.42" x2="145.12" y2="102.24"/><line class="cls-1" x1="131.54" y1="123.87" x2="136.38" y2="124.78"/><line class="cls-1" x1="139.91" y1="135.51" x2="144.64" y2="136.44"/><path class="cls-1" d="M194.21,125.44c.21-5.77-3.86-13.91-8-7.75-3.59,5.32-4.55,10.71-4.77,16.88-.21,5.77,3.86,13.9,8,7.74C193,137,194,131.61,194.21,125.44Z" transform="translate(0.07 0.05)"/><path class="cls-1" d="M198.41,126.2c.22-5.72-3.86-13.86-7.94-7.71-3.54,5.33-4.5,10.73-4.74,16.89-.22,5.73,3.86,13.87,7.94,7.72C197.22,137.77,198.17,132.37,198.41,126.2Z" transform="translate(0.07 0.05)"/><line class="cls-1" x1="194.28" y1="125.49" x2="198.48" y2="126.25"/><line class="cls-1" x1="188.49" y1="115.33" x2="192.78" y2="116.09"/><line class="cls-1" x1="181.48" y1="134.81" x2="185.8" y2="135.63"/><line class="cls-1" x1="187.5" y1="144.6" x2="191.73" y2="145.43"/><path class="cls-1" d="M147.55,159.42c.11-7.31-5.45-14.87-10.62-7.78-4.45,6.1-5.73,12.23-5.84,19.53s5.44,14.86,10.61,7.77C146.16,172.85,147.43,166.71,147.55,159.42Z" transform="translate(0.07 0.05)"/><path class="cls-1" d="M152.15,160.4c.13-7.26-5.45-14.81-10.53-7.73-4.39,6.12-5.68,12.27-5.8,19.56s5.45,14.8,10.52,7.72C150.73,173.84,152,167.68,152.15,160.4Z" transform="translate(0.07 0.05)"/><line class="cls-1" x1="147.62" y1="159.47" x2="152.22" y2="160.45"/><line class="cls-1" x1="139.75" y1="148.89" x2="144.45" y2="149.86"/><line class="cls-1" x1="131.15" y1="171.46" x2="135.88" y2="172.52"/><line class="cls-1" x1="139.36" y1="181.56" x2="143.98" y2="182.62"/><path class="cls-1" d="M119.44,131.22c0-8.54-5.45-18-12.39-10-5.71,6.6-7,13.34-7,21.6,0,8.53,5.44,18,12.39,10C118.18,146.23,119.42,139.48,119.44,131.22Z" transform="translate(0.07 0.05)"/><path class="cls-1" d="M124.37,132.18c0-8.48-5.47-18-12.29-10-5.63,6.63-6.88,13.39-6.92,21.65,0,8.48,5.46,18,12.29,10C123.08,147.2,124.33,140.44,124.37,132.18Z" transform="translate(0.07 0.05)"/><line class="cls-1" x1="119.51" y1="131.27" x2="124.44" y2="132.23"/><line class="cls-1" x1="110.01" y1="118.79" x2="115.06" y2="119.74"/><line class="cls-1" x1="100.15" y1="143.17" x2="105.23" y2="144.23"/><line class="cls-1" x1="110.07" y1="155.08" x2="115.04" y2="156.15"/><path class="cls-1" d="M119.31,180c0-8.36-6.5-15.38-12.35-7.7-5,6.58-6.55,13.16-6.57,21.2,0,8.35,6.49,15.37,12.35,7.69C117.76,194.6,119.28,188,119.31,180Z" transform="translate(0.07 0.05)"/><path class="cls-1" d="M124.13,181.11c0-8.3-6.5-15.32-12.26-7.64-5,6.6-6.48,13.22-6.52,21.24,0,8.3,6.5,15.3,12.26,7.63C122.56,195.74,124.09,189.13,124.13,181.11Z" transform="translate(0.07 0.05)"/><line class="cls-1" x1="119.38" y1="180.04" x2="124.2" y2="181.16"/><line class="cls-1" x1="110.09" y1="169.3" x2="115.02" y2="170.42"/><line class="cls-1" x1="100.46" y1="193.81" x2="105.42" y2="195.04"/><line class="cls-1" x1="110.15" y1="203.97" x2="115" y2="205.2"/><path class="cls-1" d="M173.48,98c.18-6.65-3.68-16.57-9.16-9.62-4.51,5.72-5.36,11.58-5.54,18.43-.18,6.65,3.67,16.57,9.16,9.62C172.44,110.7,173.3,104.84,173.48,98Z" transform="translate(0.07 0.05)"/><path class="cls-1" d="M178,98.73c.19-6.6-3.69-16.55-9.07-9.59-4.44,5.74-5.31,11.61-5.51,18.46-.19,6.6,3.69,16.55,9.08,9.59C176.9,111.45,177.76,105.57,178,98.73Z" transform="translate(0.07 0.05)"/><line class="cls-1" x1="173.55" y1="98.04" x2="178.03" y2="98.78"/><line class="cls-1" x1="166.72" y1="86.29" x2="171.3" y2="87.01"/><line class="cls-1" x1="158.84" y1="107.08" x2="163.45" y2="107.88"/><line class="cls-1" x1="165.96" y1="118.43" x2="170.47" y2="119.24"/><path class="cls-1" d="M172.32,141.38c.17-6.46-4.59-14.36-9.2-7.78-4,5.68-5.08,11.41-5.26,18.1-.17,6.46,4.59,14.36,9.2,7.78C171,153.8,172.14,148.07,172.32,141.38Z" transform="translate(0.07 0.05)"/><path class="cls-1" d="M176.71,142.25c.18-6.42-4.59-14.32-9.12-7.75-3.92,5.7-5,11.45-5.21,18.13-.19,6.41,4.58,14.31,9.11,7.74C175.42,154.67,176.51,148.92,176.71,142.25Z" transform="translate(0.07 0.05)"/><line class="cls-1" x1="172.39" y1="141.43" x2="176.78" y2="142.3"/><line class="cls-1" x1="165.66" y1="131.05" x2="170.14" y2="131.9"/><line class="cls-1" x1="157.93" y1="151.96" x2="162.44" y2="152.89"/><line class="cls-1" x1="164.93" y1="161.93" x2="169.35" y2="162.87"/><path class="cls-1" d="M195.71,84.32c.22-6-3-15.95-8-9.4-4.05,5.35-4.79,10.86-5,17.18-.22,6,3,15.94,8,9.4C194.75,96.14,195.48,90.64,195.71,84.32Z" transform="translate(0.07 0.05)"/><path class="cls-1" d="M200,85c.22-5.92-3-15.93-7.88-9.38-4,5.38-4.75,10.89-5,17.21-.23,5.92,3,15.93,7.88,9.38C199,96.8,199.75,91.29,200,85Z" transform="translate(0.07 0.05)"/><line class="cls-1" x1="195.78" y1="84.37" x2="200.07" y2="85.02"/><line class="cls-1" x1="189.92" y1="72.99" x2="194.29" y2="73.63"/><line class="cls-1" x1="182.79" y1="92.35" x2="187.19" y2="93.06"/><line class="cls-1" x1="188.9" y1="103.38" x2="193.21" y2="104.1"/></g><g id="knob"><path class="cls-1" d="M130.76,58.09c0-3.78-1.39-9.51-5.18-5.9-3,2.86-3.22,6-3.25,9.68s1.39,9.5,5.18,5.9C130.51,64.91,130.73,61.82,130.76,58.09Z" transform="translate(0.07 0.05)"/><line class="cls-1" x1="130.83" y1="58.14" x2="146.83" y2="60.39"/><path class="cls-1" d="M146.76,60.34c.06-3.71-1.42-9.56-5-5.88-2.86,2.93-3.11,6-3.17,9.75s1.43,9.56,5,5.88C146.46,67.17,146.71,64.05,146.76,60.34Z" transform="translate(0.07 0.05)"/><line class="cls-1" x1="146.83" y1="60.39" x2="147.25" y2="60.72"/><path class="cls-1" d="M147.18,60.67c0-3.3-1.28-8.52-4.48-5.23-2.54,2.61-2.77,5.39-2.82,8.69s1.28,8.52,4.48,5.23C146.91,66.75,147.13,64,147.18,60.67Z" transform="translate(0.07 0.05)"/><line class="cls-1" x1="130.83" y1="58.14" x2="122.4" y2="61.98"/><line class="cls-1" x1="126.71" y1="51.51" x2="126.61" y2="68.51"/><path class="cls-1" d="M139.13,59.27c.05-3.74-1.41-9.54-5.1-5.89-2.93,2.89-3.16,6-3.2,9.72s1.4,9.53,5.1,5.88C138.86,66.09,139.09,63,139.13,59.27Z" transform="translate(0.07 0.05)"/><line class="cls-1" x1="126.71" y1="51.51" x2="142.89" y2="53.72"/><line class="cls-1" x1="122.4" y1="61.98" x2="138.63" y2="64.33"/><line class="cls-1" x1="126.61" y1="68.51" x2="142.66" y2="70.9"/><line class="cls-1" x1="147.25" y1="60.72" x2="139.95" y2="64.23"/><line class="cls-1" x1="143.74" y1="54.78" x2="143.53" y2="70.09"/><line class="cls-1" x1="147.04" y1="60.56" x2="147.04" y2="60.56"/><line class="cls-1" x1="146.56" y1="57.22" x2="147.01" y2="57.89"/><line class="cls-1" x1="145.74" y1="54.91" x2="146.27" y2="55.83"/><line class="cls-1" x1="145.15" y1="54.13" x2="145.75" y2="55.14"/><line class="cls-1" x1="144.47" y1="53.66" x2="145.15" y2="54.72"/><line class="cls-1" x1="143.7" y1="53.51" x2="144.46" y2="54.59"/><line class="cls-1" x1="142.89" y1="53.72" x2="143.74" y2="54.78"/><line class="cls-1" x1="142.07" y1="54.26" x2="143.01" y2="55.27"/><line class="cls-1" x1="141.27" y1="55.14" x2="142.3" y2="56.05"/><line class="cls-1" x1="140.56" y1="56.26" x2="141.67" y2="57.05"/><line class="cls-1" x1="139.93" y1="57.61" x2="141.1" y2="58.25"/><line class="cls-1" x1="139" y1="60.79" x2="140.28" y2="61.09"/><line class="cls-1" x1="138.73" y1="62.57" x2="140.04" y2="62.67"/><line class="cls-1" x1="138.63" y1="64.33" x2="139.95" y2="64.23"/><line class="cls-1" x1="138.7" y1="66.01" x2="140.01" y2="65.73"/><line class="cls-1" x1="138.92" y1="67.54" x2="140.21" y2="67.09"/><line class="cls-1" x1="139.29" y1="68.81" x2="140.53" y2="68.23"/><line class="cls-1" x1="139.78" y1="69.84" x2="140.97" y2="69.15"/><line class="cls-1" x1="140.39" y1="70.59" x2="141.51" y2="69.81"/><line class="cls-1" x1="141.08" y1="71.03" x2="142.12" y2="70.21"/><line class="cls-1" x1="141.85" y1="71.14" x2="142.81" y2="70.31"/><line class="cls-1" x1="142.66" y1="70.9" x2="143.53" y2="70.09"/><line class="cls-1" x1="143.48" y1="70.32" x2="144.25" y2="69.58"/><line class="cls-1" x1="144.26" y1="69.44" x2="144.95" y2="68.79"/><line class="cls-1" x1="144.95" y1="68.31" x2="145.57" y2="67.79"/><line class="cls-1" x1="145.57" y1="66.98" x2="146.12" y2="66.6"/><line class="cls-1" x1="146.47" y1="63.85" x2="146.92" y2="63.81"/><line class="cls-1" x1="146.73" y1="62.12" x2="147.15" y2="62.26"/></g></g></svg>