<svg xmlns="http://www.w3.org/2000/svg" version="1.1" xmlns:xlink="http://www.w3.org/1999/xlink" xmlns:svgjs="http://svgjs.com/svgjs" width="271.32" height="314.25"><svg xmlns="http://www.w3.org/2000/svg" viewBox="0 0 271.32 314.25"><defs><style>.cls-1{fill:#fff;}.cls-2,.cls-3{fill:none;stroke:#000;stroke-miterlimit:10;stroke-width:5.67px;}.cls-3{stroke-linecap:round;}</style></defs><title>logo rauco</title><g id="SvgjsG1001" data-name="Livello 2"><g id="SvgjsG1000" data-name="Livello 1"><path d="M229.6,221.24c8.8-4.84,20.31-3.37,28-10.42,5.48-5,11.17-17.28,4.78-23.65-5.55-5.53-17.22-4.94-24.34-4.42-8,.59-30.28,6.95-25.87-8.68,1.56-5.52,5.12-10.25,6.86-15.71,1.1-3.46,1-7.13.78-10.72-.66-9.95-2.76-19.76-3.46-29.71-.58-8.11-1.32-20.72,6.87-25.55,8-4.71,17.83,4.6,26.45,3.29s13.06-12.59,8.05-19.57c-5.63-7.85-16.71-10.33-25.07-14-1.73-.77-3.27,1.71-1.52,2.59,9.18,4.62,22.91,11.07,33.38,7.47,9.7-3.33,7.87-16.73,1.79-22.58-4.91-4.72-10.7-8.61-16.26-12.49-6.94-4.84-13.86-9.32-21.68-12.67a103.57,103.57,0,0,0-30-7.78c-8.93-1-17.58-1.77-25.66-5.87-4.44-2.25-27.16-17.2-29.75-6.8l2.74-.36C143.79.87,141-1.53,138,1.21c-2.71,2.46-2.47,7.53-5.11,9.67H135a13.82,13.82,0,0,0-5-3.08c-1.58-.57-2.72,2.07-1.16,2.75-1.52-.66-.19-.78-.88.61a13,13,0,0,0-.52,2.51c-.36,1.61-.75,3.2-1.16,4.8-.91,3.5-2,6.76-4.45,9.54s-5.86,3.63-9,5.09a77.11,77.11,0,0,0-13.07,7.74c-5.91,4.3-10.82,9.57-13.8,16.3-3.57,8.06-4.65,17.06-5.89,25.7-1.75,12.19-3.69,24.83-9.87,35.71C66,126,59,130.27,52.08,134.91c-5.28,3.52-9.62,6.79-11.19,13.12a86.71,86.71,0,0,1-2.83,10c-2.36,6.23-7.21,10.39-11,15.7-3,4.25-4.15,8.76-5,13.86-.53,3.33-.84,7-2.6,10-1.42,2.37-3.77,4-5.92,5.65-5.34,4.08-10,8.24-10.84,15.15a199.47,199.47,0,0,0-1.42,21.71c-.12,5.67-.21,10.29,4.83,14.13,5.88,4.47,12.57-1.11,18.21-3.13,12.49-4.48,26.35.44,38.76,2.79,22.58,4.29,45.81,12.26,68.78,6.63,11.4-2.8,22.24-6.38,34.09-6.38,7.47,0,15,.28,22.4-.52,6.24-.66,13.37-1.89,18.16-6.32,5.05-4.69,5.05-11.45,3.34-17.68l-1.85,1.84c4.46.92,10,3.67,14.6,2.54,4.82-1.16,6.8-6.87,7.41-11.24,1.72-12.24-10-18-20.35-19.12-1.92-.2-1.9,2.8,0,3,9,1,19.44,5.95,17.22,16.71-.82,4-2.46,8-7,7.81-3.68-.17-7.45-1.85-11.05-2.59a1.52,1.52,0,0,0-1.84,1.85c1.81,6.62,1.16,13-5.27,16.65-5.66,3.18-12.75,3.68-19.08,4s-12.71,0-19.06.12c-9.45.13-18.41,2.67-27.47,5.15a80.24,80.24,0,0,1-36.58,1.82c-11.33-2-22.5-4.77-33.82-6.8-11.84-2.12-23.65-6.05-35.81-4.57a34.48,34.48,0,0,0-10.45,3.18c-3.84,1.79-8.34,4.82-12.12,1.35-4.86-4.44-3-12.51-2.75-18.37.28-5.63-.31-13.22,2.18-18.42,3.71-7.74,13.62-9.89,16.56-18.17,2-5.58,1.43-11.8,4-17.22,2.38-5,6.74-8.72,9.91-13.2A37.78,37.78,0,0,0,42.52,154c.78-2.8,1-6,2.33-8.6,3.24-6.63,12.57-10.06,18.21-14.39,15.52-11.9,17.73-33.17,20.43-51.13,1.31-8.7,2.63-18,7.3-25.59,5.13-8.38,14.27-14.22,23-18.35,6.55-3.11,11.72-5.34,14.33-12.77.72-2,5.1-14,2.27-15.24l-1.15,2.75a7.87,7.87,0,0,1,3.68,2.3A1.56,1.56,0,0,0,135,13c2.61-2.12,3.84-13.92,8.09-7.92a1.52,1.52,0,0,0,2.75-.36c1.32-5.32,23.19,7.54,26.16,9,13.88,6.94,30.16,4.62,44.73,9.39C230.51,27.64,242.2,35,253.8,43.38c4.14,3,9.92,6.39,12.74,10.82,2.33,3.68,2.95,11.17-1,14-4.19,3.09-11,1.56-15.63.43a82.93,82.93,0,0,1-17.3-6.62l-1.52,2.59c7.62,3.37,16.92,5.54,22.87,11.7,4,4.11,3.77,9.94-.32,14.08-3.86,3.9-9.56,2.12-14.1.65-7-2.28-14.34-5.21-20.46.65-5.4,5.17-6.09,13.58-6,20.61.1,9.5,1.83,18.89,3,28.29a72,72,0,0,1,.83,12.18c-.23,4.95-2.69,9.13-4.78,13.5-3.2,6.72-6.82,16.65,2.42,20.28,8.41,3.31,18.37-.93,27-.91,5.21,0,11.45-.33,16.27,2,6.55,3.18,4.16,11.15,1.32,16.25-6.38,11.46-20.88,9.09-31.08,14.71-1.69.93-.18,3.52,1.51,2.59Z"></path><path class="cls-1" d="M124.25,82.53c.84,1-1.9-4.13-2.74-3.64-2.93,1.72,1.51,3.78,1.8,4.42-.31-2.55-2-3.88-3.53-5,3.29-7.86,11.54-.75,8.84,4.21s-8.84,1.79-9.87-2.4A36.73,36.73,0,0,1,124.25,82.53Z"></path><path d="M123.19,83.59a1.88,1.88,0,0,0,.44.36,1.54,1.54,0,0,0,2.06-.54c1.1-1.7-2.24-6.07-4.06-6.06a3,3,0,0,0-2.5,3.61c.45,1.58,2.17,2.09,2.88,3.11a1.51,1.51,0,0,0,2.75-1.16c-.46-2.66-2.12-4.32-4.22-5.85l.54,2.06c.75-1.67,2-3.4,4-2.51a4.52,4.52,0,0,1,2.55,3.5,3.21,3.21,0,0,1-3.23,3.54,5.29,5.29,0,0,1-4.21-3.88l-1.85,1.84a36.56,36.56,0,0,1,5.14,2.22c1.65,1,3.16-1.59,1.51-2.59a39.37,39.37,0,0,0-5.85-2.52c-1.09-.45-2.13.85-1.85,1.85.9,3.12,3.73,5.91,7.11,6.08a6.23,6.23,0,0,0,6.25-6.19,7.47,7.47,0,0,0-4.72-6.73c-3.33-1.24-6.11.9-7.45,3.87a1.55,1.55,0,0,0,.54,2.05,6.09,6.09,0,0,1,2.83,4.06l2.74-1.15a6.33,6.33,0,0,0-1.42-1.31c-.31-.25-1.74-1.85-2-1-.08.29,1.71,2.43,1.77,2.75l.15-1.16v0l2.05-.54.16.11C124,80.07,121.86,82.19,123.19,83.59Z"></path><circle class="cls-2" cx="240.9" cy="292.6" r="18.81"></circle><path class="cls-3" d="M92.66,311.4a21.24,21.24,0,1,0-27,0"></path><path class="cls-3" d="M123.79,275.7a20.15,20.15,0,1,0,25.62,0"></path><path class="cls-3" d="M206.47,280.64a18.81,18.81,0,1,0,0,23.91"></path><path class="cls-3" d="M2.86,311.42v-18h0a18.89,18.89,0,1,1,35.23,8.46,18,18,0,0,1-3.51,4.23"></path><line class="cls-3" x1="34.58" y1="306.13" x2="39.34" y2="310.89"></line></g></g></svg><style>@media (prefers-color-scheme: light) { :root { filter: none; } }
</style></svg>