<svg id="Livello_1" data-name="Livello 1" xmlns="http://www.w3.org/2000/svg" viewBox="0 0 853.86 986.09"><defs><style>.cls-1{fill:#fff;}.cls-2,.cls-3{fill:none;stroke:#000;stroke-miterlimit:10;stroke-width:22.68px;}.cls-3{stroke-linecap:round;}</style></defs><title>logo bold</title><path d="M793.62,708.16c1.73-1,3.49-1.94,5.29-2.8.21-.11,3.77-1.7,1.26-.64.72-.3,1.45-.58,2.18-.86A118,118,0,0,1,814.54,700c7.41-1.93,14.93-3.31,22.41-4.92,16.43-3.54,32.39-9,45.07-20.42,14.57-13.17,23.77-34,25.59-53.38,1.45-15.51-5.36-30-19-37.89-13.22-7.63-29.48-9-44.4-9.69A238.17,238.17,0,0,0,797.48,576c-3.78.58-7.57,1.18-11.36,1.73l-3.07.44c2.2-.3.09,0-.31,0-2.46.3-4.93.59-7.4.82-4,.36-8,.59-12.06.56-1.92,0-3.84-.09-5.75-.24-.75-.06-1.49-.14-2.23-.22,3.07.34-.8-.2-1.42-.33a39.54,39.54,0,0,1-4.51-1.22c-.68-.22-3.34-1.69-.66-.21-.58-.31-1.19-.54-1.74-.9-.81-.54-1.65-1-2.45-1.57.53.37,1.66,1.74.34.16-.5-.61-1.14-1.17-1.69-1.75s-.44-.48.45.64c-.39-.56-.76-1.13-1.1-1.72s-.65-1.18-.95-1.78c1.73,3.5-.33-.65,0-.65-.14,0-.5-3.5-.06.44-.09-.85-.14-1.7-.16-2.56s.07-1.76.07-2.64c0-3.39-.35,1.65,0-.44a56.12,56.12,0,0,1,1.43-6.26c.57-2,1.23-4,1.94-5.91.37-1,.76-2,1.15-3,.16-.42,1.24-2.95.49-1.2,1.86-4.32,3.92-8.56,6-12.78,4.06-8.32,8.28-16.62,11.46-25.33,4.28-11.71,4.25-24.52,3.44-36.8-1-14.75-3.15-29.42-5.17-44.05l-1.56-11.38c-.51-3.69.21,1.63-.09-.63-.13-1-.25-1.93-.38-2.89q-.45-3.48-.89-7c-1-7.7-1.8-15.42-2.43-23.15s-1-15.31-1-23c0-3.38.06-6.76.23-10.13.09-1.72.21-3.43.35-5.15q.11-1.26.24-2.52c.07-.72.58-4.49.08-1.06a101.35,101.35,0,0,1,4.35-18c1.18-3.48-.88,1.49.72-1.73.62-1.26,1.24-2.51,1.94-3.73s1.44-2.34,2.2-3.48c.3-.46.64-.88.95-1.32-2.11,3-.25.4.32-.23A38.45,38.45,0,0,1,770,311c.49-.45,1.07-.85,1.53-1.33-2,2-1.4,1-.64.51,1.18-.72,2.29-1.55,3.49-2.23.74-.42,1.5-.79,2.25-1.19s3.26-1,.14-.11c1.36-.41,2.78-.76,4.12-1.18,2-.65-.33.07-.79.08.89,0,1.78-.13,2.67-.14,1.39,0,2.76.1,4.15.18.83.05,3,.54-.06,0,1,.18,1.94.33,2.91.53,14.49,3,27.93,9.67,42.47,12.45,16.82,3.21,34.33.9,46-12.85,10.9-12.81,17.52-31.32,11.46-47.78-10.77-29.24-46.12-41.58-72.56-52-2.94-1.16-5.88-2.31-8.8-3.49l-4-1.63c3,1.23,0,0-1.27-.59-6.27-2.83-13.72-1.81-17.45,4.58-3.33,5.68-1.59,14.31,4.58,17.45a284.3,284.3,0,0,0,53.58,21.17c17.11,4.69,36.69,8.37,54.17,3.47,18.29-5.13,28.71-20.59,29-39.27.14-10-1.52-22.66-6.46-31.55-3.94-7.12-10.59-13-16.67-18.25-16-13.87-33.53-26-50.91-38.1-7.21-5-14.3-10.26-21.69-15a293.65,293.65,0,0,0-43.61-22.39c-15.64-6.62-31.62-13-48.16-17-17.17-4.13-34.81-6-52.35-7.94-16.65-1.81-33.27-3.73-49.53-7.88-1.8-.46-3.59-.93-5.34-1.54-.67-.24-1.33-.51-2-.75-2.52-.9,2.15,1,.23.11-3.47-1.6-6.93-3.2-10.34-4.91-17.13-8.6-33.82-18.13-51.46-25.67-14.38-6.15-36.2-15.71-49.82-3a20.92,20.92,0,0,0-5.95,10.83l23.32-3c-5.19-7.75-11.9-15-21.86-15.34C506,6,499.46,11.72,495.07,18.18c-3.59,5.29-5.89,11.47-8.26,17.37l-1.57,4c-1.47,3.72,1-1.8-.44,1-.4.79-.9,1.63-1.23,2.46-.41,1-2.12,2.2,1.05-1.17-.9.95-1.56.84,1.66-1.18l15.46,2A45.19,45.19,0,0,0,482.62,31v24.6l.1,0h-6.79l.08,0-7.62-5.86c-1.32-1.91-1.21-3.68-1.6-5.77,0,.18-.07.45,0,.63.71,2.33-1.17-.39.18-1-.58.28-1,5.69-1.2,6.46-1.06,5.09-2.26,10.15-3.51,15.2s-2.51,10-4,14.89a39.71,39.71,0,0,0-1.37,4.3c-.15.91,2.4-4.47.08-.54-1.09,1.84-2.07,3.74-3.19,5.57-.86,1.4-1.77,2.77-2.69,4.13-.2.3-1.62,2.23-.63.93s-.35.43-.61.72c-.82.94-1.65,1.87-2.55,2.74s-3.48,2.84-1,1.07a49.38,49.38,0,0,1-5.5,3.41c-1,.51-2,1-3,1.46-.63.29-4,1.76-2.6,1.15l-.69.29-2.92,1.23c-1.67.7-3.34,1.4-5,2.12-3.29,1.44-6.54,3-9.73,4.58-7.49,3.82-14.76,8.1-21.87,12.58-21.86,13.8-42.18,30.94-54.48,54.09s-16.87,49.43-20.78,75.1c-3,19.68-5.24,39.51-9.34,59a272.75,272.75,0,0,1-7.84,29.24c-2.35,7.13-5.68,16.3-8,21.53a144.17,144.17,0,0,1-9.06,17.5c-1.48,2.38-3.09,4.66-4.69,7-1.34,1.93-.11.18.17-.17-.4.52-.82,1-1.24,1.55-1,1.25-2.09,2.49-3.19,3.7A106.76,106.76,0,0,1,265.34,405c-1,.85-2,1.67-3.1,2.49,2.3-1.8-.83.6-1.48,1.08-2.59,1.91-5.23,3.75-7.89,5.56-19.59,13.37-45.16,25.2-54.16,48.72-3.14,8.21-4.28,17.15-6.67,25.59-4.26,15.05-10,27.35-19.71,38.87-11.56,13.79-23.67,26.92-29.53,44.3-3,8.75-4.08,18-5.46,27-1.18,7.72-2.36,16.76-5.82,23.44-.66,1.27-1.45,2.43-2.23,3.64-1,1.59,1.29-1.47,0,0-.47.54-.93,1.09-1.42,1.63A68.3,68.3,0,0,1,121,633.8c-.36.3-3.9,3.06-2,1.61-1.27,1-2.55,1.92-3.83,2.88-3.5,2.62-7,5.24-10.4,8-10.7,8.57-21.41,20.1-25.19,33.63-2.24,8-2.57,16.8-3.31,25-1,11.47-1.77,23-2.33,34.47-.52,10.62-.94,21.27-.82,31.9,0,3.23.11,6.46.45,9.67.62,5.95,2.65,10.3,6,15.4,7.83,12,19.61,21.91,34.78,20.49,13.16-1.23,24.77-8.4,36.59-13.74.36-.16,2.24-.92.24-.11l2.24-.89c1.53-.58,3.07-1.13,4.62-1.63a72.78,72.78,0,0,1,9.78-2.43c9.79-1.74,20-1.72,29.92-1.1,19.79,1.24,39.14,6.09,58.46,10.23,18.44,4,37.08,6.75,55.53,10.64s36.74,8.16,55.2,11.8c18.79,3.71,37.81,6.92,56.94,8.11s37.9-.86,56.54-5c32.82-7.29,64.85-20.25,98.78-21.29,19.49-.6,39,.34,58.48-.24,36.25-1.07,93.72-6.11,101.43-51.16,2-11.81.57-23.66-2.71-35.12l-15.69,15.69c12.75,2.49,25.07,7.34,38.05,8.59,13.23,1.26,24.72-4.89,31.56-16.18,8.31-13.69,11.73-32,8-47.63-3.35-14.17-13.34-25.6-25.41-33.24-13.44-8.49-29.3-12.3-45-13.79-6.87-.65-12.76,6.33-12.76,12.76,0,7.44,5.87,12.1,12.76,12.75.74.08,4,.44,2.86.29s2.42.4,2.9.49c2.7.49,5.38,1.08,8,1.79,2.47.66,4.91,1.41,7.31,2.28.62.23,3.92,1.55,1.84.65,1.41.61,2.81,1.28,4.18,2a61.78,61.78,0,0,1,6.37,3.75c.63.42,3.29,2.52,1.45,1,1.13.94,2.23,1.9,3.28,2.93.78.76,1.48,1.6,2.25,2.37.34.35,1.53,1.89.06,0,.32.43.64.87.94,1.32.69,1.07,1.38,2.12,2,3.23.27.48.49,1,.76,1.46.93,1.64-.64-1.81,0,0,.46,1.23.88,2.47,1.22,3.73a29.09,29.09,0,0,0,.68,2.85c-.18-1.14.14,1.94.16,2.51a48.18,48.18,0,0,1-.09,5.1c0,.26-.34,3-.15,1.65s-.23,1.11-.21,1.06c-.38,1.68-.74,3.36-1.2,5-.41,1.45-.86,2.89-1.34,4.32-.3.87-.62,1.75-1,2.61-.8,2.05.69-1.35-.21.46-.59,1.18-1.18,2.37-1.87,3.5s-1.77,2.41-.29.69a17.41,17.41,0,0,0-2.13,2.26c-.54,1,.64-.52,1-.69-.55.28-1.14.72-1.68,1.06-2.15,1.35,1.56-.09-.14,0a16,16,0,0,0-2.25.53c2.28-.61,1.56-.18-.19-.16-1.12,0-2.29-.22-3.39-.15-1.35.08,1.09.17,1.18.18-.6-.11-1.22-.18-1.82-.3-1.28-.25-2.54-.5-3.81-.79-2.76-.64-5.49-1.39-8.22-2.13-6.31-1.73-12.61-3.43-19-4.68-9.24-1.8-18.54,5.77-15.69,15.69.8,2.81,1.52,5.64,2.07,8.51.14.71.69,5,.32,1.57.15,1.4.3,2.81.37,4.22a51.11,51.11,0,0,1-.07,7c0,.54-.14,1.09-.16,1.64-.06,1.68.71-2.53.12-1a34.17,34.17,0,0,0-.74,3.43c-.25,1-.58,1.92-.88,2.88-.9,2.94.69-1-.09.36-.93,1.67-1.81,3.34-2.81,5-1.69,2.75,1.24-1.2-.13.25-.66.69-1.24,1.44-1.9,2.12s-1.34,1.35-2.05,2c-.9.82-4,2.7-.79.77-3.52,2.1-6.79,4.33-10.51,6.11-3.1,1.49,1.37-.43-.65.28-1,.36-2.05.78-3.08,1.14-2.26.8-4.56,1.5-6.87,2.13a141.4,141.4,0,0,1-14.41,3.06l-3.66.55c3-.45-.09,0-1.26.15-2.53.3-5,.55-7.59.77-20.64,1.78-41.38,1.25-62.07,1.16-8,0-16.14-.06-24.17.59-19.65,1.58-38.84,6.23-57.8,11.43-18.35,5-36.71,10.66-55.58,13.4-17.21,2.51-34.8,1.46-52-.77-35.57-4.6-71.09-14.61-106.65-21.14-19.3-3.54-38.46-7.44-57.67-11.43-20.24-4.19-41-7.67-61.75-6.54-17.25.95-32.13,5.3-47.61,12.69-2.49,1.19-5,2.4-7.47,3.57-.48.22-4.12,1.85-2.75,1.27,1.55-.66-.41.16-.8.3-.75.29-1.51.58-2.27.84-1.18.41-2.37.78-3.57,1.08-1.43.35-3.82.39-1,.32-1.1,0-2.31,0-3.4.08s-1.51-.84.88.16a15.67,15.67,0,0,0-2.07-.52c-2.67-.67,1.38,1.12-1-.51-.53-.36-1.08-.69-1.62-1-1.49-1,1.48,1.41.16.06-3-3.1-3.46-3.34-5.63-6.75-.56-.87-2.36-5.28-3.22-5.58.06,0,1.71,4,.94,2-.93-2.48.25,4,0-.13-.49-8.7-.29-17.43,0-26.13q.55-17.6,1.84-35.16c.37-5.23.79-10.47,1.29-15.69.22-2.24.45-4.49.71-6.73.11-1,.24-2,.35-3,.23-2-.52,3.34,0-.24.22-1.39.42-2.79.72-4.17s1.34-3.6,0-1.07a74.72,74.72,0,0,1,5.54-9.68c.12-.15,1.48-1.88.44-.58.55-.68,1.13-1.35,1.71-2q1.94-2.18,4-4.18c2.29-2.2,4.72-4.21,7.17-6.23,2-1.6.79-.64.35-.3l2-1.49,4.86-3.63c5.41-4.07,11-8.14,15.63-13.09,12.19-13,14.75-30,17.34-46.94,1.25-8.18,2.51-16.88,6-24.44S177.11,561,182.13,555c11.46-13.59,22.51-26.39,29-43.19,4.15-10.84,6.95-21.91,9.6-33.18.42-1.8.86-3.6,1.39-5.37.24-.83.53-1.64.79-2.46.13-.4.33-.79.44-1.19.55-2-1.27,2.14-.42,1,1-1.31,1.67-3.11,2.55-4.52,1.47-2.36.29-.34.13-.24a18.27,18.27,0,0,0,2.34-2.6,72.16,72.16,0,0,1,5.39-4.95c.57-.47,3.57-2.79,1.71-1.39,1.51-1.14,3-2.24,4.56-3.33,6.05-4.27,12.31-8.23,18.49-12.31,20.23-13.36,38.85-27.63,51.21-49,17.93-31,25.91-67.13,31-102.15,4.19-28.78,7-58.78,17.24-86.22.47-1.27,1-2.54,1.49-3.8s-.26.61-.31.72c.28-.61.54-1.23.82-1.84q1.85-4.07,4-8,1.8-3.24,3.82-6.34c.72-1.11,1.46-2.2,2.23-3.28.46-.65,3.11-4.07,1.3-1.83A124.7,124.7,0,0,1,382.6,167c2.19-2.06,4.46-4,6.78-5.95,3.22-2.66,2.85-2.37,6.49-5a242,242,0,0,1,39.87-23.57c1.25-.58,2.51-1.14,3.76-1.69l2-.86c1.77-.77-1.91.79-.2.08,3.13-1.31,6.29-2.59,9.39-4a53.4,53.4,0,0,0,13.37-8.73c16.82-15,21.43-37.74,25.91-58.68.94-4.36,2.15-9.06,2.27-13.53.24-8.82-7.23-16.46-16.42-14-12.54,3.35-11.71,20.86,0,24.6a18.25,18.25,0,0,1,7.86,5.07c3.83,3.94,10.75,5,15.46,2s7-7.6,9.09-12.56c1-2.46,2-4.94,3-7.41.45-1.14.92-2.26,1.37-3.4-1.4,3.55.31-.65.7-1.48,1-2.14,2.17-4.14,3.36-6.18,1.62-2.77-1.33,1.51.31-.42a10.32,10.32,0,0,1,1.11-1.1c.11.08-2.72,1.83-1.18,1,1.85-1.05-2.49.79-1.32.49s-3.69.18-1.57.18c1.68,0-1.65-.22-1.75-.24,2,.43-2.44-1.13-1-.44.39.19,1.73,1.2.23.05-1.69-1.3.27.35.59.7s.88,1,1.31,1.47c-1.81-2.1.58.93.75,1.18,2.86,4.28,7.45,6.88,12.71,6.09,4.68-.71,9.61-4.16,10.6-9.14a8.5,8.5,0,0,0,.4-1.6c.14.2.36-3.22-.27.58-.22,1.34-.6,1.35-.2.65.86-1.5-2.4,2.55-.7,1,.27-.25-2.93,1.91-.92.78,1.65-.92-3.09,1.26-1.27.54A9.74,9.74,0,0,0,536,33c-.2.56-3.72.14-1.17.22.71,0,1.42,0,2.13,0a6.73,6.73,0,0,1,2.29.19c-.86-.6-2.88-.52-.58,0,1.66.37,3.31.73,5,1.19a111.28,111.28,0,0,1,11.07,3.82c.43.17,3.15,1.28,1.67.67s1.29.56,1.73.75q3.35,1.47,6.66,3c4.08,1.92,8.13,3.92,12.16,6,8.18,4.14,16.26,8.45,24.4,12.65,7.05,3.64,14.14,7.19,21.51,10.15,11.26,4.52,23.94,6.2,35.89,7.89,31.64,4.47,63.59,5.68,94,16.48,26.95,9.58,53,21.39,76.32,38.07,13.54,9.67,27.37,18.92,40.68,28.91l2.84,2.15,1.41,1.07-.26-.2c2.1,1.64,4.2,3.3,6.27,5,3.38,2.75,6.72,5.57,9.92,8.53,2.72,2.51,5.14,5.21,7.67,7.89,1.46,1.55-1.25-2.2-.36-.45a16.07,16.07,0,0,0,1,1.5c.29.43,1.7,2.58.28.3s.14.92.41,1.91c.65,2.41,1.24,4.84,1.71,7.3.22,1.12.41,2.25.59,3.39-.43-2.72.07,1.06.13,1.89a49.94,49.94,0,0,1,.09,5.74c0,.87-.2,1.76-.19,2.63,0-2.33.23-1.38-.13.27s-1,3.12-1.42,4.71c.42-1.54,1.06-2.08.08-.48a12.69,12.69,0,0,0-1.25,2c-.17.49,2-2,.36-.48-.47.45-.92,1-1.37,1.44s-2.18,1.93-.46.5-.64.39-1.17.7-1.2.63-1.78,1c-2,1.23,1.19-.32.53-.16-1.51.37-3,1-4.46,1.42-.86.21-1.72.38-2.58.55-.52.11-3.13.39-1,.19s-.58,0-1.09.06c-1,.07-1.91.13-2.87.16a85,85,0,0,1-11.4-.46c-.93-.09-1.85-.21-2.77-.31,2.23.24,1,.15-.36-.09-2.24-.37-4.48-.77-6.71-1.23a205.67,205.67,0,0,1-25.16-7.09q-6.37-2.21-12.64-4.73l-2.85-1.16c-1.35-.55.59.26.71.3l-1.39-.59q-3-1.29-5.91-2.62-5.58-2.55-11-5.33l-12.87,22c6,2.71,12.16,5.13,18.3,7.55,3.15,1.25,6.31,2.49,9.46,3.76l4.92,2c-2.52-1.05,2.07.9,3,1.28a186.1,186.1,0,0,1,19.5,9.81c3,1.77,5.88,3.72,8.74,5.72,1.92,1.35.17.13-.18-.16.77.63,1.54,1.25,2.29,1.9,1.21,1,2.38,2.14,3.51,3.29s2.08,2.28,3.09,3.46c-2.2-2.57.62,1,1.1,1.81.37.63,2.11,4.06,1.34,2.35-.88-1.95.22.62.3.88.24.83.47,1.66.7,2.49.08.27.56,3.09.24.87s0,.64,0,.93c0,1.53,0,3-.18,4.56.32-3.18-.29.73-.61,1.87-.24.84-.54,1.65-.8,2.49-1,3.23,1.38-2.56-.57,1.33a59.43,59.43,0,0,1-3.27,5.9c-.45.69-.91,1.39-1.41,2,1.56-2.05-.78.77-1,.95-.49.52-1.06,1-1.54,1.52-2.2,2.38,1.31-.79-.24.27a28.76,28.76,0,0,1-4.67,2.67c3-1.38-1.58.27-2.36.47-.61.15-1.24.23-1.86.34,3.41-.61.31-.07-.43-.08-1.47,0-2.93,0-4.41,0-.83-.05-1.66-.15-2.5-.21,3.26.26-.1,0-.67-.13-27.75-4.89-55.94-24.94-82.68-5.5-23.52,17.1-27.46,48.3-27.08,75.35.21,15.3,1.83,30.56,3.75,45.72,1.06,8.41,2.23,16.8,3.38,25.2l.78,5.6.3,2.22c.49,3.57-.23-1.72.06.46.5,3.75,1,7.5,1.44,11.25,1.45,12.11,2.84,24.46,2.06,36.67-.07,1.1-.21,2.2-.28,3.3-.21,2.9.66-2.81-.08.38a82.83,82.83,0,0,1-3.19,10.64c-.14.37-.92,2.22-.07.21-.4.94-.82,1.87-1.24,2.8-.78,1.73-1.6,3.46-2.42,5.17-2.11,4.41-4.31,8.78-6.42,13.19-7.36,15.34-16.5,34.29-10.8,51.64,5.9,18,23.68,25.34,41.15,26.48,16.56,1.09,33.3-2.49,49.6-4.93.69-.1,3.23-.43.47-.08l2.14-.26c1.68-.2,3.37-.38,5.07-.51,3.53-.28,7.06-.24,10.61-.23,7.58,0,15.16.11,22.72.6,1.65.11,3.3.24,4.94.39.82.08,6.15.76,3,.29a91.55,91.55,0,0,1,10.35,2.07c1.36.37,2.69.83,4.05,1.24.66.2,3.49,1.46.31,0,.53.24,1.08.46,1.59.73,1.27.65,2.48,1.34,3.7,2.07.48.28.9.63,1.36.93-2.92-1.88-.5-.34.2.33,1.15,1.1,2.32,3.15.86.7.69,1.15,1.36,2.3,2,3.45-1.76-3,0,.56.37,1.73.16.57.22,1.17.35,1.75-.75-3.44-.08-.07-.05.86,0,1.57-.07,3.12-.16,4.69-.2,3.54.66-2.48-.18,1.17-.19.81-.32,1.62-.5,2.43a79,79,0,0,1-4.42,13.55c-3.51,8-7.08,13.32-13.07,18.74-.85.77-1.73,1.53-2.64,2.24.44-.34,1.84-1.22-.15,0-1.57,1-3.09,2-4.71,3s-3.26,1.69-4.92,2.49c-.45.22-2.25.91,0,0-1,.41-2.05.8-3.09,1.17-14.29,5.11-29.53,6.62-44.08,10.79a107.15,107.15,0,0,0-23.67,9.79c-14.24,8.17-1.4,30.22,12.88,22Z" transform="translate(-73.07 -6.24)"/><path class="cls-1" d="M462.6,270.73c2.62,3.06-5.89-12.83-8.49-11.31-9.1,5.34,4.67,11.75,5.57,13.73-.95-7.92-6.32-12-10.93-15.37,10.21-24.4,35.78-2.32,27.43,13.06-8.61,15.85-27.43,5.56-30.65-7.45C451,265.74,457.65,267.48,462.6,270.73Z" transform="translate(-73.07 -6.24)"/><path d="M459.59,273.73a4.66,4.66,0,0,0,3.49,1.63,4.38,4.38,0,0,0,4.25-4.26c.3-3.11-3.13-7.42-4.78-9.76-2.08-2.95-5.1-7.1-9.27-6.12a8.73,8.73,0,0,0-6,11.06,14.68,14.68,0,0,0,4.54,5.85c.95.82,2,1.59,3,2.33.06.05,1.62,1.51,1.17.84,2.77,4.17,8.53,1.42,7.77-3.28-1.3-8.09-6.51-13.29-12.89-17.91l1.53,5.81c2.26-5.07,6.14-10.56,12.39-8.17a14.46,14.46,0,0,1,8.69,11.09c.78,5.81-4,12.12-10.08,11.78-6.58-.37-12.1-6.35-13.79-12.36l-5.23,5.23c5.4,2.24,11,3.83,16.05,6.91,4.68,2.87,8.95-4.48,4.29-7.34-5.62-3.46-12-5.25-18.08-7.77-3.09-1.28-6,2.4-5.23,5.23,2.72,9.68,11.61,18.21,22,18.6s19-9.28,18.65-19.38a22.82,22.82,0,0,0-14.59-20.05c-10.07-3.59-18.42,3-22.4,11.94a4.43,4.43,0,0,0,1.52,5.82c4.68,3.4,8,6.93,9,12.83l7.77-3.27c-1.16-1.76-2.88-2.8-4.5-4.1-.87-.7-5.35-5.35-5.89-3.84,0,.08,3.43,4.32,3.68,4.73.62,1,1.13,2.07,1.77,3.06.75,1.15.27,1.73.42.24l4.25-4.25,2.52.87C461.87,263.71,455.86,269.73,459.59,273.73Z" transform="translate(-73.07 -6.24)"/><circle class="cls-2" cx="751.52" cy="916.35" r="58.37"/><path class="cls-3" d="M364.57,981a65.88,65.88,0,1,0-83.75,0" transform="translate(-73.07 -6.24)"/><path class="cls-3" d="M461.18,870.16a62.53,62.53,0,1,0,79.5,0" transform="translate(-73.07 -6.24)"/><path class="cls-3" d="M717.75,885.5a58.36,58.36,0,1,0,0,74.2" transform="translate(-73.07 -6.24)"/><path class="cls-3" d="M184.34,964.59" transform="translate(-73.07 -6.24)"/><path class="cls-3" d="M85.91,981V925.22h0c-.92-16.8,5.93-33.68,19.29-46a58.37,58.37,0,0,1,90,72.21,55.11,55.11,0,0,1-10.9,13.12" transform="translate(-73.07 -6.24)"/><line class="cls-3" x1="111.28" y1="958.35" x2="126.04" y2="973.12"/></svg>